<svg width="30" height="30" viewBox="0 0 30 30" fill="none" xmlns="http://www.w3.org/2000/svg">
<g clip-path="url(#clip0_322_722)">
<path d="M11.0822 21.3733L9.6276 22.8279C9.17513 22.4827 8.73644 22.0982 8.31902 21.6808C7.9016 21.2633 7.51705 20.8246 7.17188 20.3721L8.62652 18.9175C8.92289 18.6211 9.40406 18.6211 9.70037 18.9175L11.0822 20.2993C11.3791 20.5962 11.3786 21.0769 11.0822 21.3733Z" fill="#B5ADB6"/>
<path d="M2.354 25.7152L7.75858 20.3106L9.68368 22.2357L4.2791 27.6403L2.354 25.7152Z" fill="#FB6A3B"/>
<path d="M2.35449 25.7152L7.75902 20.3107L9.68383 22.2355L4.2793 27.64L2.35449 25.7152Z" fill="#FCA62F"/>
<path d="M3.23779 26.5995L8.64258 21.1947L9.68381 22.2359L4.27903 27.6407L3.23779 26.5995Z" fill="#F98824"/>
<path d="M3.83283 28.5406L1.24785 29.52C0.767965 29.7018 0.29816 29.2321 0.479918 28.7522L1.45908 26.1669L3.83283 28.5406Z" fill="#FCA62F"/>
<path d="M3.8328 28.5405L3.08619 27.7939L0.500568 28.7734C0.490021 28.7772 0.479533 28.781 0.468986 28.7839C0.318635 29.2526 0.778068 29.6978 1.24717 29.5201L3.8328 28.5405Z" fill="#F98824"/>
<path d="M3.50657 28.8392L1.16024 26.4929C0.971978 26.3046 0.971978 25.9993 1.16024 25.8111L1.94241 25.0289C2.13067 24.8406 2.43594 24.8406 2.6242 25.0289L4.97053 27.3752C5.15879 27.5635 5.15879 27.8688 4.97053 28.057L4.18836 28.8392C4.0001 29.0274 3.69483 29.0274 3.50657 28.8392Z" fill="#685E67"/>
<path d="M4.97057 28.0568L4.18816 28.8392C3.9999 29.0275 3.69463 29.0275 3.50637 28.8392L2.38477 27.7176C2.61721 27.9501 2.99455 27.9501 3.22699 27.7176L3.84896 27.0956C4.08141 26.8632 4.08141 26.4859 3.84896 26.2534L4.97057 27.375C5.15883 27.5633 5.15883 27.8686 4.97057 28.0568Z" fill="#554E55"/>
<path d="M27.602 1.81344L10.9609 13.0372C10.709 13.207 10.5586 13.4969 10.5808 13.7998C10.6622 14.908 10.1155 16.2937 9.04932 17.487L12.5127 20.9504C13.7061 19.8842 15.0917 19.3375 16.2 19.4189C16.5029 19.4412 16.7928 19.2907 16.9626 19.0389L28.1863 2.39779C28.445 2.01424 27.9855 1.55475 27.602 1.81344Z" fill="#B5DBFD"/>
<path d="M16.1994 19.4188C15.0911 19.3375 13.7054 19.884 12.5126 20.9504L11.1992 19.637C12.3921 18.5706 13.7776 18.0241 14.8861 18.1054C15.1888 18.1277 15.4793 17.9774 15.6492 17.7256L25.3623 3.32412L27.6019 1.81317C27.9854 1.55506 28.4448 2.01443 28.1861 2.39735L16.9621 19.0385C16.7926 19.2907 16.5021 19.441 16.1994 19.4188Z" fill="#8DCAFC"/>
<path d="M16.6756 19.308C16.5339 19.3902 16.369 19.4313 16.2006 19.4188C15.0922 19.3378 13.7063 19.8843 12.5127 20.9505L9.04932 17.4871C10.1155 16.2935 10.6626 14.9082 10.581 13.7992C10.5685 13.6308 10.6096 13.4658 10.6918 13.3242L16.2996 13.3248C16.507 13.3248 16.6751 13.4929 16.6751 13.7003L16.6756 19.308Z" fill="#64B9FC"/>
<path d="M16.6756 19.3083C16.5343 19.3901 16.3692 19.431 16.2008 19.4187C15.9087 19.3975 15.597 19.4203 15.2752 19.4841V15.1005C15.2746 14.8928 15.1068 14.725 14.8997 14.725H10.5161C10.5804 14.4037 10.6027 14.0915 10.5814 13.7994C10.5687 13.6305 10.6101 13.4659 10.6919 13.3246L16.2997 13.3251C16.5073 13.3246 16.6751 13.4924 16.6751 13.7006L16.6756 19.3083Z" fill="#31A7FB"/>
<path d="M16.6753 19.3083C16.534 19.3901 16.3688 19.431 16.2005 19.4187C15.0916 19.338 13.706 19.8845 12.5126 20.9504L11.1992 19.637C12.3921 18.5706 13.7776 18.0241 14.8861 18.1054C15.1888 18.1277 15.4793 17.9774 15.6492 17.7256L16.6753 16.2046L16.6753 19.3083Z" fill="#31A7FB"/>
<path d="M13.6798 22.1185C13.2614 22.5369 12.7757 22.8454 12.2574 23.0452C12.09 23.1097 11.8959 23.0723 11.7756 22.9392C11.6109 22.7571 11.3875 22.6077 11.1054 22.5044C10.8948 22.4271 10.6636 22.4273 10.4531 22.5048C10.1718 22.6083 9.94931 22.7574 9.78531 22.9391C9.66542 23.0719 9.47189 23.1092 9.30495 23.0449C8.78628 22.8451 8.30019 22.5365 7.88154 22.1178C7.46294 21.6992 7.15433 21.2131 6.95452 20.6945C6.89019 20.5276 6.92757 20.3339 7.06034 20.2141C7.24199 20.05 7.39116 19.8274 7.4947 19.5461C7.57222 19.3355 7.57228 19.1042 7.49493 18.8936C7.39146 18.6116 7.24216 18.3883 7.06011 18.2238C6.92704 18.1035 6.88966 17.9094 6.95417 17.7421C7.15398 17.2237 7.46247 16.7379 7.88089 16.3196C8.30171 15.8988 8.7912 15.5886 9.31345 15.3892C9.47786 15.3264 9.66642 15.3656 9.78419 15.4965C9.93349 15.6623 10.1332 15.8023 10.3932 15.9169C10.6036 16.0095 10.8392 16.0237 11.057 15.9501C11.3618 15.8472 11.6013 15.6916 11.7753 15.4993C11.8943 15.3677 12.0829 15.3261 12.2485 15.3895C12.7702 15.5891 13.2591 15.8988 13.6799 16.3196C14.1006 16.7403 14.4103 17.2293 14.61 17.7509C14.6734 17.9165 14.6317 18.1052 14.5002 18.2242C14.3079 18.3981 14.1523 18.6375 14.0494 18.9422C13.9758 19.16 13.9899 19.3956 14.0825 19.606C14.197 19.8662 14.3371 20.0659 14.503 20.2152C14.6338 20.333 14.673 20.5216 14.6102 20.686C14.4108 21.2082 14.1006 21.6977 13.6798 22.1185Z" fill="#CBC5CB"/>
<path d="M13.6803 22.1186C13.2619 22.537 12.7762 22.8453 12.2578 23.0453C12.09 23.1097 11.896 23.0723 11.776 22.9392C11.6112 22.757 11.3877 22.6074 11.1055 22.5043C10.895 22.4269 10.6641 22.4273 10.4536 22.5047C10.1718 22.6082 9.94959 22.7574 9.78523 22.9392C9.66565 23.0718 9.4717 23.1092 9.30518 23.0453C8.78639 22.8448 8.30064 22.5365 7.88187 22.1177C7.671 21.9069 7.4883 21.679 7.3335 21.4389C7.57004 21.592 7.81965 21.7181 8.07711 21.8173C8.2441 21.8816 8.43764 21.8438 8.55723 21.7112C8.72158 21.5294 8.94424 21.3807 9.22561 21.2767C9.43607 21.1993 9.6674 21.1993 9.87746 21.2763C10.1601 21.3798 10.3832 21.529 10.548 21.7112C10.668 21.8443 10.8624 21.8821 11.0298 21.8173C11.5482 21.6173 12.0339 21.309 12.4522 20.8907C12.8732 20.4697 13.1833 19.9805 13.3824 19.4578C13.4455 19.2939 13.4063 19.1051 13.2754 18.9873C13.1093 18.8377 12.9693 18.6386 12.8549 18.3781C12.7623 18.168 12.7479 17.9319 12.8219 17.7145C12.9245 17.4101 13.0801 17.17 13.2724 16.9961C13.4042 16.8773 13.4459 16.6886 13.382 16.5229C13.2823 16.2625 13.1554 16.0102 13.001 15.7706C13.2411 15.9263 13.469 16.1089 13.6798 16.3199C14.1008 16.7408 14.4104 17.2296 14.61 17.751C14.6739 17.9167 14.6322 18.1055 14.5005 18.2242C14.3083 18.3981 14.1521 18.6377 14.0495 18.9421C13.976 19.16 13.9899 19.3957 14.083 19.6062C14.1969 19.8662 14.3374 20.0658 14.5035 20.2154C14.6339 20.3329 14.6731 20.5216 14.6105 20.6859C14.4109 21.208 14.1013 21.6977 13.6803 22.1186Z" fill="#B5ADB6"/>
<path d="M10.7825 20.4579C11.4676 20.4579 12.023 19.9025 12.023 19.2174C12.023 18.5323 11.4676 17.9769 10.7825 17.9769C10.0974 17.9769 9.54199 18.5323 9.54199 19.2174C9.54199 19.9025 10.0974 20.4579 10.7825 20.4579Z" fill="#FCA62F"/>
<path d="M11.6597 20.0944C11.1753 20.5788 10.39 20.5788 9.90551 20.0944C9.77549 19.9644 9.68068 19.813 9.62109 19.6508C10.0616 19.8157 10.5769 19.7204 10.9313 19.366C11.2857 19.0116 11.381 18.4963 11.2161 18.0558C11.3783 18.1154 11.5297 18.2102 11.6597 18.3402C12.1442 18.8246 12.1442 19.61 11.6597 20.0944Z" fill="#F98824"/>
<path d="M27.4788 10.4152L27.9688 10.7583C28.2554 10.959 28.3287 11.352 28.1337 11.6425L17.9374 26.8321C17.7369 27.1308 17.3303 27.2066 17.0356 27.0003L15.9556 26.2441C15.6609 26.0377 15.5931 25.6296 15.8052 25.3391L26.5914 10.5627C26.7977 10.2801 27.1922 10.2145 27.4788 10.4152Z" fill="#B5DBFD"/>
<path d="M25.1177 26.1431L29.5061 16.2272C29.6476 15.9072 29.5072 15.5328 29.1901 15.385L28.648 15.1322C28.331 14.9844 27.9539 15.1174 27.7998 15.4315L23.0156 25.1853C22.8551 25.5124 22.9984 25.908 23.3314 26.0558C23.6445 26.1947 23.9577 26.3331 24.2711 26.4713C24.5953 26.6141 24.9743 26.4672 25.1177 26.1431Z" fill="#8DCAFC"/>
<path d="M19.5847 2.5212L19.2416 2.03118C19.0409 1.7446 18.6479 1.6713 18.3574 1.8663L3.16772 12.0625C2.86907 12.263 2.79319 12.6696 2.99955 12.9643L3.75577 14.0443C3.96207 14.339 4.37018 14.4068 4.66069 14.1947L19.4372 3.40848C19.7198 3.20223 19.7854 2.80772 19.5847 2.5212Z" fill="#B5DBFD"/>
<path d="M3.85691 4.88201L13.7729 0.49369C14.0928 0.352128 14.4672 0.492577 14.615 0.809628L14.8678 1.35174C15.0156 1.66879 14.8826 2.0459 14.5685 2.19994L4.81475 6.98418C4.48762 7.14467 4.09205 7.00141 3.94428 6.66836C3.80541 6.35529 3.66695 6.04205 3.52879 5.72869C3.38588 5.40438 3.53283 5.02545 3.85691 4.88201Z" fill="#8DCAFC"/>
<path d="M15.0213 20.8427C15.1264 20.5675 15.0842 20.2599 14.9208 20.0281C15.3627 19.888 15.7871 19.829 16.1679 19.8571C16.6225 19.8908 17.0664 19.6711 17.3272 19.2845L24.8495 8.13148C24.9852 7.93027 24.9322 7.65711 24.7309 7.5214C24.5297 7.3857 24.2566 7.43879 24.1209 7.64L17.1152 18.0269L17.1147 13.7C17.1147 13.6402 17.1078 13.5819 17.0955 13.5257L22.6321 7.98928C22.8037 7.81765 22.8037 7.53939 22.6321 7.36777C22.4604 7.19615 22.1822 7.19615 22.0106 7.36777L16.474 12.9042C16.4178 12.8919 16.3596 12.885 16.2998 12.885L11.9727 12.8845L27.769 2.23121L25.1941 6.04883C25.0584 6.25004 25.1115 6.5232 25.3127 6.65891C25.5139 6.79461 25.787 6.74152 25.9227 6.54031L28.5513 2.64312C28.7848 2.29689 28.7416 1.84883 28.4463 1.55357C28.151 1.25832 27.703 1.21514 27.3568 1.44869L10.7152 12.6727C10.3286 12.9334 10.1092 13.3776 10.1426 13.8318C10.1706 14.2131 10.1116 14.6373 9.97153 15.0789C9.73973 14.9155 9.43211 14.8735 9.15696 14.9785C8.55971 15.2066 8.02592 15.5533 7.57041 16.0088C7.11813 16.461 6.77295 16.991 6.54438 17.584C6.41348 17.9236 6.50237 18.3117 6.76569 18.5498C6.89992 18.6712 7.00656 18.8377 7.08262 19.045C7.12399 19.1577 7.12393 19.2818 7.0825 19.3943C7.00651 19.6009 6.90004 19.767 6.76604 19.8879C6.50289 20.1255 6.41395 20.5132 6.54467 20.8525C6.54977 20.8658 6.55574 20.8786 6.56102 20.8919L2.82643 24.6264C2.66963 24.5114 2.4816 24.4483 2.28338 24.4483C2.03723 24.4483 1.80578 24.5441 1.6317 24.7182L0.849474 25.5004C0.675392 25.6745 0.579532 25.906 0.579532 26.152C0.579532 26.362 0.649845 26.5609 0.778341 26.723L0.0687706 28.5967C-0.0773622 28.9825 0.0131065 29.4035 0.304845 29.6952C0.504357 29.8946 0.764103 30 1.03188 30C1.15574 30 1.28137 29.9774 1.40342 29.9312L3.27678 29.2214C3.44354 29.3532 3.64539 29.4196 3.84754 29.4196C4.08356 29.4196 4.31957 29.3298 4.49922 29.1502L5.28151 28.3679C5.60664 28.0428 5.63647 27.5337 5.37321 27.1735L9.10791 23.4388C9.12115 23.4441 9.13405 23.4501 9.14735 23.4552C9.48666 23.5858 9.87426 23.4969 10.1119 23.2337C10.2328 23.0998 10.3988 22.9933 10.6053 22.9173C10.7178 22.8759 10.8419 22.8758 10.9546 22.9171C11.1619 22.9931 11.3286 23.0997 11.45 23.2341C11.6148 23.4164 11.8516 23.5152 12.0945 23.5152C12.2024 23.5152 12.3115 23.4956 12.4159 23.4554C13.0089 23.2268 13.5388 22.8816 13.991 22.4294C14.4466 21.9738 14.7932 21.4401 15.0213 20.8427ZM5.68399 25.6196L4.92719 23.7686L5.9974 22.6984L6.75086 24.5414C6.75197 24.544 6.7535 24.5463 6.75467 24.5489L5.68399 25.6196ZM4.7602 26.5434L3.45631 25.2395L4.25319 24.4426L5.00998 26.2936L4.7602 26.5434ZM1.09199 29.1092C1.00979 29.1403 0.953009 29.1003 0.926349 29.0737C0.899689 29.047 0.859669 28.99 0.890724 28.9079L1.45744 27.4116L2.58813 28.5423L1.09199 29.1092ZM4.65994 27.7464L3.87772 28.5287C3.86108 28.5453 3.83401 28.5453 3.81737 28.5287L1.47098 26.1823C1.46272 26.174 1.4585 26.1639 1.4585 26.1522C1.4585 26.1404 1.46272 26.1303 1.47098 26.122L2.2532 25.3398C2.26979 25.3231 2.29692 25.3231 2.3135 25.3398L4.65994 27.6861C4.67658 27.7028 4.67658 27.7299 4.65994 27.7464ZM7.42821 23.8754L6.67141 22.0244L6.98553 21.7103C7.15446 21.9672 7.34975 22.2074 7.57106 22.4287C7.79237 22.65 8.0326 22.8453 8.28942 23.0142L7.42821 23.8754ZM12.0998 22.6353C12.0979 22.636 12.0961 22.6364 12.0946 22.6365C11.8775 22.3992 11.5957 22.216 11.2571 22.0919C10.9489 21.9789 10.6096 21.9791 10.3016 22.0925C9.9642 22.2167 9.6836 22.3995 9.46733 22.636C9.4661 22.6358 9.46475 22.6355 9.46322 22.6349C8.98522 22.4507 8.55772 22.1722 8.19256 21.8071C7.82746 21.442 7.54897 21.0145 7.36487 20.5366C7.36428 20.5351 7.36393 20.5336 7.36369 20.5324C7.6003 20.3161 7.78311 20.0353 7.90733 19.6978C8.0207 19.3897 8.02082 19.0504 7.90768 18.7421C7.7834 18.4035 7.60024 18.122 7.36317 17.9051C7.36334 17.9036 7.36369 17.9019 7.3644 17.9001C7.54856 17.4223 7.82694 16.9951 8.19186 16.6302C8.55813 16.2639 8.98674 15.985 9.46744 15.8009C9.66127 16.0129 9.90643 16.1824 10.2163 16.3189C10.5303 16.4572 10.8789 16.4741 11.1979 16.3664C11.563 16.243 11.8648 16.0529 12.095 15.801C12.2968 15.8785 12.4967 15.9775 12.6892 16.0954C12.8963 16.2221 13.1668 16.157 13.2934 15.9499C13.4201 15.7429 13.355 15.4724 13.148 15.3457C12.9087 15.1992 12.659 15.0758 12.4059 14.9789C12.0716 14.8509 11.6873 14.9415 11.4496 15.2043C11.3205 15.347 11.1412 15.4578 10.9166 15.5336C10.8592 15.5531 10.7982 15.5603 10.7372 15.556C10.9624 14.9337 11.0598 14.322 11.0191 13.7674C11.0189 13.7661 11.0191 13.7647 11.0191 13.7635L16.2357 13.764L16.2363 18.9806C16.2349 18.9805 16.2336 18.9807 16.2323 18.9806C15.678 18.94 15.066 19.0374 14.4438 19.2625C14.4394 19.2014 14.4466 19.1404 14.4661 19.0829C14.5419 18.8584 14.6527 18.6791 14.7954 18.55C15.0581 18.3123 15.1487 17.9281 15.0207 17.5937C14.9247 17.343 14.8026 17.0953 14.6577 16.8577C14.5313 16.6505 14.2609 16.5849 14.0536 16.7113C13.8464 16.8376 13.7809 17.1081 13.9072 17.3153C14.0237 17.5063 14.1217 17.7045 14.1985 17.9046C13.9468 18.1348 13.7566 18.4365 13.6332 18.8015C13.5255 19.1204 13.5423 19.469 13.6806 19.783C13.817 20.0932 13.9867 20.3384 14.1988 20.5323C14.0151 21.012 13.7361 21.4411 13.3694 21.8078C13.0047 22.1727 12.5775 22.451 12.0998 22.6353Z" fill="black"/>
<path d="M10.7825 17.5374C10.3338 17.5374 9.91189 17.7121 9.59461 18.0294C9.27727 18.3467 9.10254 18.7686 9.10254 19.2174C9.10254 19.6661 9.27732 20.0879 9.59461 20.4053C9.91189 20.7226 10.3338 20.8974 10.7825 20.8974C11.2313 20.8974 11.6532 20.7226 11.9705 20.4053C12.6255 19.7503 12.6255 18.6844 11.9705 18.0294C11.6531 17.7121 11.2313 17.5374 10.7825 17.5374ZM11.349 19.7838C11.1976 19.9351 10.9965 20.0184 10.7825 20.0184C10.5686 20.0184 10.3674 19.9351 10.2161 19.7838C10.0648 19.6325 9.98145 19.4313 9.98145 19.2174C9.98145 19.0034 10.0648 18.8022 10.2161 18.6509C10.3674 18.4996 10.5686 18.4163 10.7825 18.4163C10.9965 18.4163 11.1977 18.4996 11.349 18.6509C11.6613 18.9632 11.6613 19.4714 11.349 19.7838Z" fill="black"/>
<path d="M28.221 10.3981L27.731 10.055C27.2518 9.71956 26.5814 9.83094 26.2366 10.3033L15.45 25.0801C15.2773 25.3167 15.2086 25.6063 15.2566 25.8953C15.3047 26.1843 15.4633 26.4361 15.7034 26.6042L16.7834 27.3604C16.9675 27.4893 17.1815 27.5564 17.4012 27.5564C17.4679 27.5564 17.5352 27.5503 17.6022 27.5377C17.8903 27.484 18.1388 27.3204 18.3021 27.0771L28.4986 11.8872C28.8247 11.4017 28.7002 10.7336 28.221 10.3981ZM27.769 11.3974L17.5724 26.5873C17.531 26.6489 17.4724 26.6679 17.4411 26.6738C17.4097 26.6796 17.3482 26.683 17.2874 26.6406L16.2074 25.8843C16.1467 25.8417 16.1289 25.7827 16.1237 25.7513C16.1184 25.7199 16.1162 25.6583 16.1599 25.5984L26.9465 10.8216C26.986 10.7676 27.0482 10.7387 27.111 10.7387C27.1513 10.7387 27.1918 10.7505 27.2268 10.7751L27.7168 11.1182C27.8068 11.1811 27.8301 11.3063 27.769 11.3974Z" fill="black"/>
<path d="M29.3762 14.9866L28.8341 14.7337C28.304 14.4865 27.6631 14.7127 27.4056 15.2378L22.6212 24.9918C22.4903 25.2585 22.4742 25.5591 22.5757 25.8384C22.677 26.1173 22.8822 26.3372 23.1533 26.4575C23.4667 26.5965 23.7802 26.7351 24.094 26.8734C24.2353 26.9357 24.383 26.9651 24.5284 26.9651C24.9439 26.9651 25.3412 26.7245 25.5198 26.3209L29.9083 16.4048C30.145 15.87 29.9063 15.2337 29.3762 14.9866ZM29.1046 16.0492L24.7161 25.9653C24.6708 26.0676 24.5509 26.1143 24.4486 26.0692C24.1356 25.9311 23.8226 25.7929 23.5098 25.6541C23.4414 25.6237 23.4128 25.5684 23.4017 25.5381C23.3907 25.5077 23.3771 25.4465 23.4103 25.3788L28.1947 15.6248C28.2297 15.5534 28.3025 15.5115 28.3779 15.5115C28.4064 15.5115 28.4353 15.5175 28.4626 15.5303L29.0048 15.7831C29.1042 15.8295 29.149 15.9488 29.1046 16.0492Z" fill="black"/>
<path d="M2.46205 12.3974C2.40832 12.6854 2.47131 12.9762 2.63936 13.2163L3.39563 14.2964C3.56368 14.5364 3.81545 14.695 4.1045 14.743C4.16461 14.753 4.22479 14.758 4.2845 14.758C4.51172 14.758 4.73227 14.6864 4.91965 14.5496L7.94297 12.3427C8.13903 12.1996 8.18192 11.9247 8.03883 11.7287C7.89575 11.5326 7.62082 11.4897 7.42477 11.6328L4.40145 13.8397C4.34157 13.8834 4.27998 13.8812 4.24852 13.8759C4.21711 13.8707 4.15811 13.8529 4.11557 13.7922L3.3593 12.7121C3.31676 12.6513 3.32022 12.5898 3.32608 12.5585C3.33194 12.5272 3.35092 12.4686 3.4125 12.4272L18.6025 2.23079C18.6937 2.16968 18.8189 2.193 18.8819 2.28288L19.225 2.77296C19.2879 2.86278 19.267 2.98852 19.1784 3.05321L8.97621 10.5003C8.78016 10.6434 8.73727 10.9183 8.88035 11.1144C9.02338 11.3103 9.2983 11.3533 9.49442 11.2102L19.6966 3.76313C20.1691 3.41825 20.2805 2.74788 19.945 2.26882L19.6018 1.7788C19.2664 1.29968 18.5983 1.17505 18.1126 1.50106L2.9226 11.6975C2.67932 11.8608 2.51573 12.1093 2.46205 12.3974Z" fill="black"/>
<path d="M3.54237 6.84633C3.66266 7.11744 3.88251 7.32258 4.16147 7.42401C4.28258 7.46801 4.40774 7.48992 4.53243 7.48992C4.69514 7.48992 4.85704 7.4526 5.00809 7.37854L14.7622 2.59424C15.2874 2.33666 15.5135 1.69588 15.2663 1.16566L15.0134 0.623555C14.7662 0.093457 14.13 -0.145254 13.5951 0.0914648L3.67883 4.4799C3.13397 4.72102 2.88618 5.36068 3.12647 5.90572C3.26475 6.21943 3.40333 6.53303 3.54237 6.84633ZM4.0345 5.28363L13.9508 0.895195C14.0511 0.850899 14.1705 0.895547 14.2168 0.995039L14.4696 1.53715C14.516 1.63658 14.4736 1.75682 14.3751 1.8051L4.62096 6.58945C4.55335 6.62268 4.49212 6.60908 4.46165 6.59801C4.43135 6.58699 4.37604 6.55834 4.34569 6.48996C4.20694 6.17725 4.06866 5.8643 3.93067 5.55123C3.88561 5.44893 3.93219 5.32893 4.0345 5.28363Z" fill="black"/>
<path d="M21.6064 25.2777C21.3983 25.1528 21.1284 25.2203 21.0034 25.4283L19.9626 27.1621C19.8377 27.3703 19.9052 27.6402 20.1132 27.7651C20.1841 27.8077 20.262 27.8279 20.339 27.8279C20.4882 27.8279 20.6338 27.7518 20.7162 27.6145L21.757 25.8807C21.8819 25.6726 21.8145 25.4026 21.6064 25.2777Z" fill="black"/>
<path d="M2.61184 10.0999C2.68884 10.0999 2.76682 10.0797 2.83761 10.0372L4.57145 8.9964C4.77952 8.87147 4.84696 8.60153 4.72204 8.39341C4.59712 8.18534 4.32723 8.11784 4.11905 8.24282L2.3852 9.28362C2.17714 9.40854 2.1097 9.67848 2.23462 9.88661C2.31706 10.0239 2.46261 10.0999 2.61184 10.0999Z" fill="black"/>
<path d="M6.16207 15.03L4.55362 16.1962C4.35709 16.3387 4.31332 16.6135 4.45577 16.8099C4.54172 16.9285 4.67584 16.9915 4.8119 16.9915C4.90131 16.9915 4.99161 16.9643 5.06948 16.9077L6.67793 15.7415C6.87446 15.5991 6.91823 15.3243 6.77579 15.1278C6.6334 14.9313 6.35854 14.8875 6.16207 15.03Z" fill="black"/>
<path d="M14.9735 23.3254C14.777 23.1829 14.5022 23.2268 14.3598 23.4232L13.1936 25.0317C13.0511 25.2282 13.0949 25.5029 13.2914 25.6454C13.3694 25.7019 13.4596 25.7291 13.549 25.7291C13.6851 25.7291 13.8192 25.6661 13.9051 25.5476L15.0713 23.9391C15.2138 23.7427 15.17 23.4679 14.9735 23.3254Z" fill="black"/>
<path d="M27.2613 6.40278L26.2205 8.13663C26.0955 8.34469 26.163 8.61464 26.371 8.73956C26.4419 8.7821 26.5198 8.80231 26.5968 8.80231C26.746 8.80231 26.8916 8.72626 26.974 8.58897L28.0148 6.85512C28.1398 6.64706 28.0724 6.37712 27.8642 6.2522C27.6561 6.12727 27.3861 6.19471 27.2613 6.40278Z" fill="black"/>
<path d="M21.6377 3.84211C21.7147 3.84211 21.7927 3.8219 21.8635 3.77936L23.5973 2.73856C23.8054 2.61364 23.8728 2.34369 23.7479 2.13557C23.623 1.9275 23.353 1.86006 23.1449 1.98498L21.4111 3.02578C21.203 3.15071 21.1356 3.42065 21.2605 3.62877C21.3429 3.76606 21.4884 3.84211 21.6377 3.84211Z" fill="black"/>
</g>
<defs>
<clipPath id="clip0_322_722">
<rect width="30" height="30" fill="white"/>
</clipPath>
</defs>
</svg>
