<svg width="30" height="30" viewBox="0 0 30 30" fill="none" xmlns="http://www.w3.org/2000/svg">
<path d="M25.8022 3.31008C26.03 3.39838 26.1802 3.61758 26.1802 3.86192V14.9527C26.1802 21.888 21.5191 27.738 15.159 29.538C15.0547 29.5676 14.9437 29.5676 14.8393 29.538C8.47853 27.738 3.81934 21.8881 3.81934 14.9527V3.86192C3.81934 3.61758 3.96945 3.39838 4.19727 3.31008L11.4993 0.479655C11.8872 0.329303 12.3051 0.615475 12.3051 1.03149V1.31438C12.3051 2.79253 13.4768 4.02897 14.9547 4.05311C16.464 4.07778 17.6946 2.86178 17.6946 1.35809V1.03202C17.6946 0.616002 18.1124 0.32983 18.5003 0.480182L25.8022 3.31008Z" fill="#FCC16D"/>
<path d="M3.81934 13.954V14.9527C3.81934 15.3311 3.83404 15.7061 3.86129 16.0775H26.1383C26.1656 15.7061 26.1803 15.3311 26.1803 14.9527V13.954H3.81934Z" fill="#FCA62F"/>
<path d="M3.81934 7.41345H26.1802V9.57943H3.81934V7.41345Z" fill="#FCA62F"/>
<path d="M26.1802 3.86221V14.9528C26.1802 21.888 21.519 27.738 15.1593 29.538C15.055 29.5673 14.9437 29.5673 14.8394 29.538C14.4521 29.4284 14.0706 29.3036 13.6968 29.1648C20.0759 27.3237 24.7423 21.4392 24.7423 14.4689V3.27744C24.7423 3.09404 24.6585 2.92471 24.5208 2.81396L25.8022 3.31025C26.0302 3.39814 26.1802 3.61787 26.1802 3.86221Z" fill="#FCA62F"/>
<path d="M15.0935 27.0813C15.0323 27.1018 14.9656 27.1018 14.9044 27.0813C9.73526 25.3496 6.18652 20.4653 6.18652 14.9527V5.28064C6.18652 5.15847 6.26158 5.04884 6.37549 5.00472L10.136 3.54703C10.2777 3.49212 10.4363 3.55429 10.5065 3.68906C11.3512 5.31082 13.0482 6.42087 14.9996 6.42087C16.9507 6.42087 18.6477 5.31099 19.4924 3.68935C19.5626 3.55458 19.7213 3.49242 19.863 3.54732L23.6236 5.00478C23.7375 5.0489 23.8126 5.15853 23.8126 5.2807V14.9526C23.8126 20.4649 20.2634 25.3492 15.0935 27.0813Z" fill="#31A7FB"/>
<path d="M23.8129 5.28076V14.9528C23.8129 20.4647 20.2639 25.3491 15.0936 27.0811C15.0326 27.1016 14.9658 27.1016 14.9049 27.0811C14.6916 27.0097 14.4818 26.9329 14.2744 26.8509C19.1008 24.946 22.3639 20.238 22.3639 14.9528V4.70303C22.3639 4.61338 22.3234 4.53018 22.2561 4.4751L23.6236 5.00478C23.7379 5.04932 23.8129 5.15889 23.8129 5.28076Z" fill="#1785F8"/>
<path d="M18.8814 11.9134C18.7481 12.1353 18.9447 12.4087 19.1971 12.351C19.2326 12.3429 19.2682 12.3345 19.3038 12.326C21.0481 11.9083 22.5786 11.0651 23.8125 9.9325V6.27683C23.8125 6.15437 23.7375 6.0448 23.6233 6.00085L20.8577 4.92859C20.8351 7.43142 20.1293 9.83558 18.8814 11.9134Z" fill="#1785F8"/>
<path d="M23.4534 17.9598C23.065 19.5636 22.3712 21.0618 21.4308 22.3807C20.3456 22.1511 19.2798 21.7386 18.2773 21.1327C18.2462 21.1139 18.2152 21.0952 18.1841 21.0759C17.9638 20.9399 18.0165 20.6071 18.2673 20.5427C20.14 20.0616 21.913 19.1897 23.4534 17.9598Z" fill="#1785F8"/>
<path d="M11.1177 11.9134C11.251 12.1353 11.0544 12.4087 10.802 12.351C10.7664 12.3429 10.7309 12.3345 10.6953 12.326C8.95098 11.9083 7.42051 11.0651 6.18652 9.9325V6.27683C6.18652 6.15437 6.26152 6.0448 6.37578 6.00085L9.14141 4.92859C9.16396 7.43142 9.86978 9.83558 11.1177 11.9134Z" fill="#1785F8"/>
<path d="M11.8153 21.0759C11.7843 21.0952 11.7532 21.1139 11.7222 21.1327C10.7196 21.7386 9.65381 22.1511 8.56865 22.3807C7.62764 21.0618 6.93447 19.563 6.54541 17.9598C8.08584 19.1891 9.85947 20.0616 11.7321 20.5427C11.9829 20.6071 12.0356 20.9399 11.8153 21.0759Z" fill="#1785F8"/>
<path d="M19.0976 14.3465L18.2614 15.1827C18.2059 15.2382 18.1306 15.2694 18.0521 15.2694H16.2452C16.0818 15.2694 15.9493 15.1369 15.9493 14.9735V13.2861C15.9493 13.2077 15.9805 13.1324 16.036 13.0769L16.8722 12.2407C16.9747 12.1382 16.9878 11.9764 16.9031 11.8586L15.2398 9.5468C15.1217 9.38268 14.8774 9.38268 14.7593 9.5468L13.096 11.8586C13.0113 11.9763 13.0244 12.1381 13.1269 12.2407L13.9631 13.0769C14.0186 13.1324 14.0498 13.2077 14.0498 13.2861V14.9735C14.0498 15.1369 13.9173 15.2694 13.7539 15.2694H11.947C11.8685 15.2694 11.7932 15.2382 11.7377 15.1827L10.9015 14.3465C10.799 14.244 10.6372 14.2308 10.5194 14.3156L8.20756 15.9789C8.04344 16.097 8.04344 16.3413 8.20756 16.4593L10.5194 18.1227C10.6372 18.2074 10.7989 18.1943 10.9015 18.0918L11.7377 17.2556C11.7932 17.2001 11.8685 17.1689 11.947 17.1689H13.7539C13.9173 17.1689 14.0498 17.3014 14.0498 17.4648V21.8879C14.0498 21.9664 14.0186 22.0417 13.9631 22.0972L13.1269 22.9334C13.0244 23.0359 13.0113 23.1977 13.096 23.3154L14.7593 25.6273C14.8774 25.7914 15.1217 25.7914 15.2398 25.6273L16.9031 23.3154C16.9878 23.1977 16.9747 23.036 16.8722 22.9334L16.036 22.0972C15.9805 22.0417 15.9493 21.9664 15.9493 21.8879V17.4648C15.9493 17.3014 16.0818 17.1689 16.2452 17.1689H18.0521C18.1306 17.1689 18.2059 17.2001 18.2614 17.2556L19.0976 18.0918C19.2001 18.1943 19.3619 18.2074 19.4797 18.1227L21.7915 16.4593C21.9556 16.3413 21.9556 16.097 21.7915 15.9789L19.4797 14.3156C19.3619 14.2308 19.2001 14.244 19.0976 14.3465Z" fill="#1785F8"/>
<path d="M18.8819 10.9173C18.7486 11.1392 18.9452 11.4126 19.1976 11.3549C19.2331 11.3468 19.2687 11.3384 19.3043 11.33C21.0486 10.9122 22.5791 10.069 23.8131 8.9364V5.28074C23.8131 5.15828 23.7381 5.04871 23.6238 5.00476L20.8582 3.9325C20.8356 6.43533 20.1298 8.83949 18.8819 10.9173Z" fill="#FC7D4B"/>
<path d="M23.8132 5.28074V8.9364C23.3679 9.34538 22.8833 9.71687 22.3642 10.0432V4.703C22.3642 4.61335 22.3237 4.53015 22.2563 4.47507L22.2569 4.47449L23.6239 5.00476C23.7382 5.04871 23.8132 5.15828 23.8132 5.28074Z" fill="#FB6A3B"/>
<path d="M18.856 11.1647C18.9011 11.2959 19.0382 11.3915 19.1976 11.3551C19.2333 11.3469 19.2685 11.3387 19.3042 11.3299C21.0485 10.9122 22.579 10.069 23.813 8.93638V5.28071C23.813 5.18989 23.7714 5.10552 23.7034 5.05103C22.9704 7.6186 21.2413 9.84165 18.856 11.1647Z" fill="#FB5532"/>
<path d="M23.8133 5.28071V8.93638C23.368 9.34536 22.8834 9.71684 22.3643 10.0432V7.93559C22.9561 7.05317 23.4096 6.07993 23.7037 5.05103C23.7717 5.10552 23.8133 5.18989 23.8133 5.28071Z" fill="#D53E2D"/>
<path d="M18.2671 19.5464C18.0162 19.6108 17.964 19.9437 18.1843 20.0798C18.2151 20.0989 18.2461 20.1178 18.2772 20.1365C19.4584 20.8502 20.727 21.2961 22.0119 21.4901C22.861 20.0633 23.4381 18.4666 23.6819 16.778C22.0893 18.1057 20.233 19.0413 18.2671 19.5464Z" fill="#FC7D4B"/>
<path d="M22.0006 17.9774C22.5871 17.6229 23.149 17.2221 23.6822 16.778C23.4385 18.4666 22.8613 20.0633 22.0123 21.4901C21.5805 21.425 21.151 21.3313 20.7256 21.2082C21.291 20.2022 21.7229 19.1164 22.0006 17.9774Z" fill="#FB6A3B"/>
<path d="M18.1842 20.0797C18.2153 20.099 18.2464 20.1178 18.2774 20.1365C19.4587 20.8502 20.7272 21.2961 22.0122 21.49C22.4329 20.7834 22.7868 20.034 23.0663 19.2529C21.51 19.8172 19.7985 20.0082 18.06 19.7404C18.0214 19.86 18.0583 20.0018 18.1842 20.0797Z" fill="#FB5532"/>
<path d="M21.451 19.6918C22.0035 19.5898 22.5438 19.4422 23.0664 19.2529C22.7869 20.034 22.433 20.7834 22.0123 21.49C21.5805 21.425 21.151 21.3312 20.7256 21.2082C20.9998 20.7207 21.2424 20.2139 21.451 19.6918Z" fill="#D53E2D"/>
<path d="M14.2754 6.3688C14.0387 6.40337 13.7967 6.42095 13.5506 6.42095C11.692 6.42095 10.0631 5.41313 9.18359 3.91606L10.1357 3.54692C10.2775 3.49185 10.4363 3.55454 10.5066 3.68931C11.2443 5.1061 12.6342 6.13325 14.2754 6.3688Z" fill="#1785F8"/>
<path d="M11.1177 10.9173C11.251 11.1392 11.0544 11.4126 10.802 11.3549C10.7664 11.3468 10.7309 11.3385 10.6953 11.33C8.95098 10.9122 7.42051 10.069 6.18652 8.9364V5.28074C6.18652 5.15828 6.26152 5.04871 6.37578 5.00476L9.14141 3.9325C9.16396 6.43533 9.86978 8.83949 11.1177 10.9173Z" fill="#FC7D4B"/>
<path d="M11.1436 11.1647C11.0984 11.2959 10.9613 11.3915 10.802 11.3551C10.7662 11.3469 10.7311 11.3387 10.6953 11.3299C8.95098 10.9122 7.42051 10.069 6.18652 8.93638V5.28071C6.18652 5.18989 6.22813 5.10552 6.29609 5.05103C7.0291 7.6186 8.7582 9.84165 11.1436 11.1647Z" fill="#FB5532"/>
<path d="M11.7321 19.5464C11.983 19.6109 12.0353 19.9437 11.8149 20.0798C11.7841 20.0989 11.7532 20.1178 11.7221 20.1366C10.5408 20.8502 9.27227 21.2961 7.9873 21.4901C7.13828 20.0633 6.56113 18.4666 6.31738 16.778C7.91002 18.1058 9.76621 19.0413 11.7321 19.5464Z" fill="#FC7D4B"/>
<path d="M11.8151 20.0797C11.7841 20.099 11.753 20.1178 11.722 20.1365C10.5407 20.8502 9.27217 21.2961 7.98721 21.49C7.5665 20.7834 7.2126 20.034 6.93311 19.2529C8.48936 19.8172 10.2009 20.0082 11.9394 19.7404C11.978 19.86 11.9411 20.0018 11.8151 20.0797Z" fill="#FB5532"/>
<path d="M19.0981 13.1746L18.2619 14.0108C18.2064 14.0663 18.1311 14.0975 18.0526 14.0975H16.2457C16.0823 14.0975 15.9498 13.965 15.9498 13.8016V12.1143C15.9498 12.0358 15.981 11.9605 16.0365 11.905L16.8727 11.0688C16.9752 10.9663 16.9883 10.8045 16.9036 10.6867L15.2402 8.37492C15.1222 8.2108 14.8779 8.2108 14.7598 8.37492L13.0965 10.6867C13.0117 10.8045 13.0249 10.9662 13.1274 11.0688L13.9636 11.905C14.0191 11.9605 14.0503 12.0358 14.0503 12.1143V13.8016C14.0503 13.965 13.9178 14.0975 13.7544 14.0975H11.9474C11.869 14.0975 11.7937 14.0663 11.7382 14.0108L10.902 13.1746C10.7995 13.0721 10.6377 13.059 10.5199 13.1437L8.20805 14.8071C8.04393 14.9251 8.04393 15.1694 8.20805 15.2875L10.5199 16.9508C10.6376 17.0356 10.7994 17.0224 10.902 16.9199L11.7382 16.0837C11.7937 16.0282 11.869 15.997 11.9474 15.997H13.7544C13.9178 15.997 14.0503 16.1295 14.0503 16.2929V20.7161C14.0503 20.7945 14.0191 20.8698 13.9636 20.9253L13.1274 21.7615C13.0249 21.864 13.0117 22.0259 13.0965 22.1436L14.7598 24.4554C14.8779 24.6195 15.1222 24.6195 15.2402 24.4554L16.9036 22.1436C16.9883 22.0259 16.9752 21.8641 16.8727 21.7615L16.0365 20.9253C15.981 20.8698 15.9498 20.7945 15.9498 20.7161V16.2929C15.9498 16.1295 16.0823 15.997 16.2457 15.997H18.0526C18.1311 15.997 18.2064 16.0282 18.2619 16.0837L19.0981 16.9199C19.2006 17.0224 19.3624 17.0356 19.4801 16.9508L21.792 15.2875C21.9561 15.1694 21.9561 14.9251 21.792 14.8071L19.4801 13.1437C19.3624 13.059 19.2006 13.0721 19.0981 13.1746Z" fill="#FCC16D"/>
<path d="M16.8723 21.7614C16.9748 21.8639 16.9877 22.0257 16.9033 22.1434L15.2398 24.4555C15.1215 24.6196 14.8777 24.6196 14.7594 24.4555L14.4805 24.0676L15.8645 22.1434C15.9488 22.0257 15.9359 21.8639 15.8334 21.7614L14.9973 20.9253C14.9416 20.8696 14.9105 20.7946 14.9105 20.7161V16.2928C14.9105 16.1294 15.043 15.9969 15.2064 15.9969H16.2453C16.0818 15.9969 15.9494 16.1294 15.9494 16.2928V20.7161C15.9494 20.7946 15.9805 20.8696 16.0361 20.9253L16.8723 21.7614Z" fill="#FCA62F"/>
<path d="M16.9033 10.6865C16.9877 10.8043 16.9748 10.966 16.8723 11.0686L16.0361 11.9047C15.9805 11.9604 15.9494 12.0359 15.9494 12.1145V13.8014C15.9494 13.9648 16.0818 14.0973 16.2453 14.0973H15.2064C15.043 14.0973 14.9105 13.9648 14.9105 13.8014V12.1145C14.9105 12.0359 14.9416 11.9604 14.9973 11.9047L15.8334 11.0686C15.9359 10.966 15.9488 10.8043 15.8645 10.6865L14.4805 8.76289L14.7594 8.375C14.8777 8.21094 15.1215 8.21094 15.2398 8.375L16.9033 10.6865Z" fill="#FCA62F"/>
<path d="M21.7922 15.2874L19.4801 16.9508C19.3623 17.0358 19.2006 17.0223 19.098 16.9198L18.6943 16.5161L20.4018 15.2874C20.5658 15.1696 20.5658 14.9253 20.4018 14.8069L18.6943 13.5782L19.098 13.1745C19.2006 13.0719 19.3623 13.059 19.4801 13.1434L21.7922 14.8069C21.9563 14.9253 21.9563 15.1696 21.7922 15.2874Z" fill="#FCA62F"/>
<path d="M6.18676 8.27822H3.75781C3.4342 8.27822 3.17188 8.01589 3.17188 7.69228V6.82556C3.17188 6.50195 3.4342 6.23962 3.75781 6.23962H6.18676V8.27822Z" fill="#FFF1E2"/>
<path d="M4.84229 6.23962H6.18666V8.27822H4.84229V6.23962Z" fill="#FFD496"/>
<path d="M6.18676 14.6879H3.75781C3.4342 14.6879 3.17188 14.4256 3.17188 14.1019V13.2352C3.17188 12.9116 3.4342 12.6493 3.75781 12.6493H6.18676V14.6879Z" fill="#FFF1E2"/>
<path d="M4.84229 12.6493H6.18666V14.6879H4.84229V12.6493Z" fill="#FFD496"/>
<path d="M23.813 8.27822H26.2419C26.5656 8.27822 26.8279 8.01589 26.8279 7.69228V6.82556C26.8279 6.50195 26.5656 6.23962 26.2419 6.23962H23.813V8.27822Z" fill="#FFF1E2"/>
<path d="M26.8278 6.82581V7.69241C26.8278 8.01585 26.5659 8.27835 26.2419 8.27835H24.7349C25.0583 8.27835 25.3208 8.01585 25.3208 7.69241V6.82581C25.3208 6.50178 25.0583 6.23987 24.7349 6.23987H26.2419C26.5659 6.23987 26.8278 6.50178 26.8278 6.82581Z" fill="#FFD496"/>
<path d="M23.813 14.6879H26.2419C26.5655 14.6879 26.8279 14.4256 26.8279 14.1019V13.2352C26.8279 12.9116 26.5655 12.6493 26.2419 12.6493H23.813V14.6879Z" fill="#FFF1E2"/>
<path d="M26.8278 13.2355V14.1021C26.8278 14.4255 26.5659 14.688 26.2419 14.688H24.7349C25.0583 14.688 25.3208 14.4255 25.3208 14.1021V13.2355C25.3208 12.9114 25.0583 12.6495 24.7349 12.6495H26.2419C26.5659 12.6495 26.8278 12.9114 26.8278 13.2355Z" fill="#FFD496"/>
<path d="M16.3893 20.6568V16.4365H17.9932L18.7874 17.2306C19.0435 17.4868 19.4429 17.5191 19.7369 17.3076L22.0488 15.6442C22.2403 15.5064 22.3547 15.2832 22.3547 15.0473C22.3547 14.8113 22.2404 14.5881 22.0488 14.4503L19.7369 12.7869C19.443 12.5754 19.0436 12.6077 18.7875 12.8638L17.9932 13.658H16.3893V12.1736L17.1835 11.3794C17.4396 11.1232 17.472 10.7239 17.2604 10.4299L15.5971 8.11799C15.4592 7.92645 15.2361 7.81213 15.0001 7.81213C14.7642 7.81213 14.5411 7.92645 14.4032 8.11799L12.7397 10.43C12.5283 10.724 12.5606 11.1233 12.8167 11.3794L13.6109 12.1736V13.6579H12.007L11.2128 12.8638C10.9567 12.6076 10.5574 12.5752 10.2634 12.7869L7.95148 14.4502C7.75988 14.5881 7.64551 14.8112 7.64551 15.0472C7.64551 15.2832 7.75988 15.5064 7.95148 15.6441L10.2634 17.3075C10.5576 17.5191 10.9568 17.4867 11.2128 17.2305L12.007 16.4364H13.6109V17.1591C13.6109 17.4018 13.8076 17.5986 14.0504 17.5986C14.2931 17.5986 14.4898 17.4018 14.4898 17.1591V16.2929C14.4898 15.8873 14.16 15.5575 13.7544 15.5575H11.9475C11.7511 15.5575 11.5664 15.634 11.4276 15.7729L10.6776 16.5228L8.62666 15.0472L10.6776 13.5715L11.4275 14.3215C11.5664 14.4604 11.7511 14.5369 11.9475 14.5369H13.7544C14.16 14.5369 14.4898 14.207 14.4898 13.8015V12.1142C14.4898 11.9178 14.4133 11.7331 14.2745 11.5942L13.5245 10.8442L15.0001 8.79334L16.4758 10.8442L15.7256 11.5944C15.5869 11.7333 15.5104 11.9179 15.5104 12.1142V13.8016C15.5104 14.2071 15.8403 14.5369 16.2458 14.5369H18.0528C18.2492 14.5369 18.4338 14.4604 18.5727 14.3215L19.3227 13.5716L21.3736 15.0472L19.3227 16.5229L18.5727 15.7729C18.4338 15.634 18.2491 15.5575 18.0528 15.5575H16.2458C15.8403 15.5575 15.5104 15.8874 15.5104 16.2929V20.7161C15.5104 20.9125 15.5869 21.097 15.7258 21.2361L16.4758 21.9861L15.0001 24.037L13.5245 21.9861L14.2745 21.2362C14.4133 21.0973 14.4898 20.9126 14.4898 20.7162V19.073C14.4898 18.8303 14.2931 18.6335 14.0504 18.6335C13.8076 18.6335 13.6109 18.8303 13.6109 19.073V20.6567L12.8167 21.4509C12.5606 21.707 12.5283 22.1063 12.7398 22.4003L14.4032 24.7123C14.5411 24.9038 14.7642 25.0181 15.0001 25.0181C15.2361 25.0181 15.4592 24.9038 15.5971 24.7123L17.2604 22.4004C17.472 22.1065 17.4397 21.7071 17.1835 21.4509L16.3893 20.6568Z" fill="black"/>
<path d="M11.7373 7.84472C11.9801 7.84472 12.1768 7.64796 12.1768 7.40526V7.39917C12.1768 7.15647 11.9801 6.95972 11.7373 6.95972C11.4946 6.95972 11.2979 7.15647 11.2979 7.39917V7.40526C11.2978 7.64796 11.4946 7.84472 11.7373 7.84472Z" fill="black"/>
<path d="M13.2344 8.08691C13.4771 8.08691 13.6738 7.89015 13.6738 7.64745V7.64136C13.6738 7.39866 13.4771 7.2019 13.2344 7.2019C12.9916 7.2019 12.7949 7.39866 12.7949 7.64136V7.64745C12.7949 7.89015 12.9916 8.08691 13.2344 8.08691Z" fill="black"/>
<path d="M12.2471 8.86858V8.86255C12.2471 8.61985 12.0504 8.4231 11.8076 8.4231C11.5649 8.4231 11.3682 8.61985 11.3682 8.86255V8.86858C11.3682 9.11128 11.5649 9.30804 11.8076 9.30804C12.0503 9.30804 12.2471 9.11128 12.2471 8.86858Z" fill="black"/>
<path d="M18.2627 7.84472C18.5055 7.84472 18.7022 7.64796 18.7022 7.40526V7.39917C18.7022 7.15647 18.5055 6.95972 18.2627 6.95972C18.0199 6.95972 17.8232 7.15647 17.8232 7.39917V7.40526C17.8232 7.64796 18.0199 7.84472 18.2627 7.84472Z" fill="black"/>
<path d="M16.7656 8.08691C17.0084 8.08691 17.2051 7.89015 17.2051 7.64745V7.64136C17.2051 7.39866 17.0084 7.2019 16.7656 7.2019C16.5229 7.2019 16.3262 7.39866 16.3262 7.64136V7.64745C16.3262 7.89015 16.5229 8.08691 16.7656 8.08691Z" fill="black"/>
<path d="M18.1924 9.30804C18.4351 9.30804 18.6318 9.11128 18.6318 8.86858V8.86255C18.6318 8.61985 18.4351 8.4231 18.1924 8.4231C17.9496 8.4231 17.7529 8.61985 17.7529 8.86255V8.86858C17.7529 9.11128 17.9497 9.30804 18.1924 9.30804Z" fill="black"/>
<path d="M27.2676 7.69213V6.82541C27.2676 6.39351 26.9988 6.0239 26.62 5.87303V3.8618C26.62 3.43928 26.3554 3.05285 25.9614 2.90015L18.6593 0.0702525C18.3419 -0.0527943 17.9847 -0.01131 17.7038 0.180995C17.423 0.373358 17.2554 0.691463 17.2554 1.03189V1.35797C17.2554 1.96775 17.0161 2.53904 16.5815 2.96654C16.1472 3.39381 15.5748 3.62361 14.9621 3.61365C13.7394 3.59367 12.7447 2.56219 12.7447 1.31431V1.03137C12.7447 0.690936 12.5771 0.372889 12.2962 0.180467C12.0154 -0.0118373 11.6581 -0.0532631 11.3407 0.0697252L4.03848 2.90015C3.64455 3.05285 3.37994 3.43928 3.37994 3.86174V5.87308C3.00119 6.02396 2.73242 6.39357 2.73242 6.82541V7.69213C2.73242 8.12402 3.00119 8.49363 3.37994 8.64445V12.2827C3.00119 12.4336 2.73242 12.8032 2.73242 13.235V14.1018C2.73242 14.534 3.00166 14.9039 3.38094 15.0545C3.40256 18.481 4.5125 21.7239 6.59545 24.4387C8.63252 27.0937 11.5179 29.0549 14.7199 29.9611C14.8113 29.9869 14.9053 29.9999 14.9994 29.9999C15.0934 29.9999 15.1875 29.9869 15.2789 29.961C19.2765 28.8296 22.7168 26.0815 24.7175 22.4212C24.8339 22.2083 24.7556 21.9412 24.5427 21.8249C24.3296 21.7085 24.0627 21.7867 23.9463 21.9997C22.058 25.4542 18.8116 28.0478 15.0396 29.1153C15.0134 29.1228 14.9855 29.1228 14.9592 29.1153C11.9381 28.2604 9.21541 26.4095 7.29283 23.9037C5.34336 21.3629 4.29728 18.3316 4.26061 15.1272H5.74906C5.78439 17.8556 6.64725 20.4677 8.2509 22.6919C9.88273 24.9551 12.1354 26.6171 14.7652 27.4981C14.8407 27.5234 14.92 27.5361 14.9994 27.5361C15.0787 27.5361 15.158 27.5234 15.2335 27.4981C17.8637 26.617 20.1167 24.9549 21.7487 22.6917C23.3526 20.4676 24.2156 17.8555 24.2509 15.1273H25.7391C25.7184 16.9164 25.381 18.6609 24.7334 20.3149C24.6449 20.5409 24.7564 20.7958 24.9824 20.8843C25.035 20.9049 25.0892 20.9146 25.1425 20.9146C25.3181 20.9146 25.4839 20.8086 25.5518 20.6353C26.2483 18.8565 26.6065 16.9794 26.6188 15.0546C26.9982 14.9041 27.2676 14.5342 27.2676 14.1018V13.2351C27.2676 12.8032 26.9988 12.4336 26.62 12.2827V8.64445C26.9988 8.49369 27.2676 8.12402 27.2676 7.69213ZM21.7855 21.0063C21.0033 20.8637 20.2463 20.6268 19.5225 20.2974C19.5505 20.2976 19.5784 20.2982 19.6064 20.2982C20.5216 20.2982 21.4348 20.1793 22.319 19.9456C22.1589 20.3063 21.9809 20.6602 21.7855 21.0063ZM22.7251 18.906C21.8807 19.192 20.9991 19.3592 20.1094 19.405C21.1432 18.9923 22.1295 18.46 23.0376 17.8229C22.9503 18.1888 22.8457 18.55 22.7251 18.906ZM23.1671 5.29887C22.5624 7.13344 21.4133 8.75836 19.9043 9.94166C20.7095 8.25592 21.1775 6.42826 21.2776 4.56662L23.1671 5.29887ZM26.2422 6.67892C26.323 6.67892 26.3887 6.74467 26.3887 6.82541V7.69213C26.3887 7.77287 26.323 7.83861 26.2422 7.83861H24.2526V6.67892H26.2422ZM23.3737 7.07678V8.7392C22.5914 9.42902 21.6994 9.98842 20.7382 10.3958C21.8253 9.47871 22.725 8.34586 23.3737 7.07678ZM24.2527 13.0886H26.2423C26.3231 13.0886 26.3888 13.1544 26.3888 13.2351V14.1018C26.3888 14.1826 26.3231 14.2483 26.2423 14.2483H24.2527V13.0886ZM24.2527 12.2097V8.71752H25.7412V12.2097H24.2527ZM8.72264 4.56621C8.82271 6.4282 9.2907 8.25621 10.096 9.94224C8.5867 8.75871 7.43762 7.13355 6.83293 5.29869L8.72264 4.56621ZM7.68107 19.9465C8.56525 20.1799 9.47844 20.2981 10.3937 20.2981C10.4216 20.2981 10.4496 20.2975 10.4776 20.2973C9.75377 20.6268 8.99656 20.8638 8.21422 21.0064C8.01887 20.6606 7.84115 20.3069 7.68107 19.9465ZM7.27467 18.906C7.15408 18.55 7.04955 18.1888 6.96219 17.8229C7.86957 18.4595 8.85477 18.9922 9.88772 19.4047C8.99902 19.359 8.11824 19.1918 7.27467 18.906ZM5.7473 8.71758V12.2098H4.25885V8.71758H5.7473ZM3.75781 14.2484C3.67701 14.2484 3.61133 14.1826 3.61133 14.1019V13.2351C3.61133 13.1544 3.67701 13.0886 3.75781 13.0886H5.74736V14.2483H3.75781V14.2484ZM6.62627 7.07555C7.27496 8.34504 8.17443 9.47836 9.26176 10.3957C8.30053 9.98836 7.4085 9.4289 6.62627 8.73914V7.07555ZM5.7473 7.83861H3.75781C3.67701 7.83861 3.61133 7.77287 3.61133 7.69213V6.82541C3.61133 6.74467 3.67701 6.67892 3.75781 6.67892H5.74736V7.83861H5.7473ZM14.9993 26.6495C12.5642 25.8235 10.4781 24.2781 8.96381 22.1779C8.87492 22.0546 8.78873 21.9299 8.70477 21.8042C9.846 21.5581 10.935 21.1257 11.9492 20.513C11.9817 20.4934 12.014 20.4736 12.0461 20.4537C12.2963 20.2992 12.4292 20.0116 12.385 19.7212C12.3406 19.4299 12.1273 19.1943 11.8416 19.1208C9.9783 18.6421 8.21469 17.7524 6.72875 16.5457C6.66102 16.0208 6.62621 15.4891 6.62621 14.9527V9.8731C7.79685 10.7654 9.15084 11.4118 10.5931 11.7572C10.6302 11.7661 10.6672 11.7748 10.7043 11.7833C10.7589 11.7957 10.8138 11.8018 10.8682 11.8018C11.0994 11.8018 11.3204 11.6921 11.4601 11.4995C11.6329 11.261 11.6465 10.9437 11.4947 10.691C10.3165 8.7293 9.6602 6.50197 9.58772 4.23082L10.1763 4.00266C10.9572 5.42379 12.3043 6.42111 13.891 6.74724C14.1288 6.79617 14.3611 6.64306 14.4099 6.40529C14.4588 6.16752 14.3057 5.93519 14.0679 5.88633C12.7006 5.60525 11.5447 4.73033 10.8966 3.48592C10.7224 3.15146 10.3273 3.00164 9.97736 3.13717L6.21687 4.59486C5.93598 4.70367 5.74719 4.9793 5.74719 5.28053V5.80002H4.25885V3.86174C4.25885 3.79933 4.29793 3.74221 4.35617 3.71965L11.6583 0.889217C11.7235 0.863963 11.7747 0.888631 11.7995 0.905565C11.8242 0.922557 11.8658 0.961405 11.8658 1.03131V1.31426C11.8658 3.03896 13.2484 4.46467 14.9478 4.49244C15.7967 4.50621 16.5943 4.18687 17.1978 3.59308C17.8017 2.999 18.1343 2.20523 18.1343 1.35797V1.03189C18.1343 0.961991 18.1758 0.923143 18.2005 0.906151C18.2254 0.889217 18.2765 0.864608 18.3417 0.889803L25.6439 3.71971C25.7021 3.74226 25.7411 3.79939 25.7411 3.8618V5.80002H24.2526V5.28064C24.2526 4.97935 24.0638 4.70385 23.7829 4.59498L20.0223 3.13752C19.6727 3.00193 19.2774 3.15181 19.1031 3.48627C18.443 4.75348 17.2142 5.65928 15.8158 5.9093C15.5769 5.95201 15.4179 6.18035 15.4606 6.41924C15.5033 6.65818 15.7316 6.81744 15.9705 6.77449C17.594 6.48422 19.0254 5.45209 19.8233 4.00301L20.4121 4.23123C20.3396 6.50226 19.6833 8.72947 18.5052 10.691C18.3533 10.9437 18.3669 11.2611 18.5398 11.4995C18.6794 11.6921 18.9004 11.8018 19.1317 11.8018C19.1861 11.8018 19.241 11.7957 19.2956 11.7833C19.3327 11.7748 19.3698 11.7662 19.4067 11.7573C20.849 11.4118 22.2031 10.7655 23.3737 9.87322V14.9527C23.3737 15.4891 23.3389 16.0208 23.2711 16.5458C21.7852 17.7524 20.0216 18.6421 18.1583 19.1208C17.8725 19.1943 17.6592 19.4299 17.6149 19.7212C17.5706 20.0116 17.7037 20.2992 17.9537 20.4538C17.9859 20.4736 18.0182 20.4934 18.0504 20.5128C19.0648 21.1256 20.1536 21.558 21.2947 21.804C21.2108 21.9298 21.1246 22.0544 21.0357 22.1776C19.5213 24.2778 17.4348 25.8233 14.9993 26.6495Z" fill="black"/>
</svg>
