<svg width="30" height="30" viewBox="0 0 30 30" fill="none" xmlns="http://www.w3.org/2000/svg">
<g clip-path="url(#clip0_322_1035)">
<path d="M18.5153 10.8593V6.21082H11.4842V10.8593C7.9162 12.2625 5.39062 15.7387 5.39062 19.8049C5.39062 25.1119 9.69278 29.4141 14.9998 29.4141C20.3068 29.4141 24.609 25.1119 24.609 19.8049C24.609 15.7387 22.0834 12.2625 18.5153 10.8593Z" fill="#F9F9F9"/>
<path d="M5.52199 20.4573C5.52199 20.4573 5.48648 20.5044 5.42285 20.5891C5.82192 25.5293 9.95709 29.4141 15 29.4141C20.0973 29.4141 24.2669 25.445 24.5884 20.4289L24.478 20.4572C21.8607 23.0745 17.6173 23.0745 15 20.4572C12.3827 17.8399 8.13926 17.8399 5.52199 20.4573Z" fill="#FB1466"/>
<path d="M18.5155 3.39838V1.75779C18.5155 1.11057 17.9908 0.585938 17.3436 0.585938H12.6562C12.009 0.585938 11.4844 1.11057 11.4844 1.75779V3.39838H18.5155Z" fill="#C68A65"/>
<path d="M18.5155 7.26548V6.21082H11.4844V7.26548C11.4844 8.2363 12.2713 9.02326 13.2421 9.02326H16.7577C17.7285 9.02326 18.5155 8.2363 18.5155 7.26548Z" fill="#C68A65"/>
<path d="M10.3125 3.39832H19.6873V6.21076H10.3125V3.39832Z" fill="#F9F9F9"/>
<path d="M1.87115 6.38616C2.55416 5.70315 3.6615 5.70315 4.34451 6.38616L4.59834 6.63998L4.85216 6.38616C5.53517 5.70315 6.64251 5.70315 7.32552 6.38616C8.00854 7.06917 8.00854 8.17651 7.32552 8.85952L4.59828 11.5867L1.87115 8.85952C1.18813 8.17651 1.18813 7.06911 1.87115 6.38616Z" fill="#FB1466"/>
<path d="M28.1287 6.38616C27.4457 5.70315 26.3384 5.70315 25.6554 6.38616L25.4016 6.63998L25.1477 6.38616C24.4647 5.70315 23.3574 5.70315 22.6744 6.38616C21.9914 7.06917 21.9914 8.17651 22.6744 8.85952L25.4015 11.5867L28.1286 8.85952C28.8118 8.17651 28.8118 7.06911 28.1287 6.38616Z" fill="#FB1466"/>
<path d="M19.2548 14.6076C18.7171 14.0699 17.8453 14.0699 17.3076 14.6076L17.1078 14.8074L16.908 14.6076C16.3703 14.0699 15.4985 14.0699 14.9609 14.6076C14.4232 15.1453 14.4232 16.0171 14.9609 16.5548L17.1079 18.7017L19.2548 16.5548C19.7925 16.0171 19.7925 15.1453 19.2548 14.6076Z" fill="#FB1466"/>
<path d="M11.4843 24.7568C12.261 24.7568 12.8906 24.1272 12.8906 23.3506C12.8906 22.5739 12.261 21.9443 11.4843 21.9443C10.7077 21.9443 10.0781 22.5739 10.0781 23.3506C10.0781 24.1272 10.7077 24.7568 11.4843 24.7568Z" fill="white"/>
<path d="M23.8399 15.9854C23.5356 16.0955 23.3781 16.4314 23.4882 16.7358C23.8434 17.7177 24.0235 18.7504 24.0235 19.8049C24.0235 19.8994 24.0215 19.9933 24.0186 20.087C21.6304 22.427 17.7842 22.4126 15.4145 20.0428C12.8518 17.4802 8.84015 17.2291 5.99296 19.2887C6.18948 15.7678 8.38418 12.7082 11.6991 11.4045C11.9232 11.3164 12.0706 11.1001 12.0706 10.8592V9.29382C12.4156 9.49392 12.8157 9.60917 13.2424 9.60917H16.758C17.1847 9.60917 17.5848 9.49397 17.9298 9.29382V10.8592C17.9298 11.1001 18.0772 11.3164 18.3013 11.4045C19.1387 11.7339 19.9213 12.1869 20.6274 12.7509C20.8803 12.9529 21.249 12.9117 21.451 12.6588C21.6529 12.406 21.6117 12.0373 21.3588 11.8353C20.6664 11.2822 19.9087 10.8235 19.1017 10.4687V6.79673H19.6877C20.0112 6.79673 20.2736 6.53435 20.2736 6.2108V3.39836C20.2736 3.07482 20.0112 2.81244 19.6877 2.81244H19.1017V1.75777C19.1017 0.788538 18.3132 0 17.344 0H12.6566C11.6873 0 10.8988 0.788538 10.8988 1.75777V2.81244H10.3129C9.98932 2.81244 9.72695 3.07482 9.72695 3.39836V6.2108C9.72695 6.53435 9.98932 6.79673 10.3129 6.79673H10.8988V10.4685C9.17418 11.226 7.70035 12.4404 6.6185 13.9995C5.43223 15.7092 4.80518 17.7166 4.80518 19.8049C4.80518 25.4265 9.37867 30 15.0003 30C20.6219 30 25.1954 25.4265 25.1954 19.8049C25.1954 18.6141 24.9918 17.4474 24.5902 16.3372C24.4801 16.0329 24.1442 15.8756 23.8399 15.9854ZM12.0705 1.75777C12.0705 1.4347 12.3334 1.17185 12.6565 1.17185H17.3439C17.6669 1.17185 17.9298 1.4347 17.9298 1.75777V2.81244H12.0705V1.75777ZM10.8987 3.98429H19.1016V5.62488H10.8987V3.98429ZM17.9298 6.79673V7.26547C17.9298 7.91163 17.4041 8.43732 16.7579 8.43732H13.2424C12.5962 8.43732 12.0705 7.91163 12.0705 7.26547V6.79673H17.9298ZM15.0002 28.8281C10.3544 28.8281 6.51783 25.2988 6.02982 20.7805C8.42133 18.4875 12.232 18.5177 14.5858 20.8715C16.0067 22.2923 17.8729 23.0026 19.7392 23.0026C21.1614 23.0026 22.5834 22.5896 23.8085 21.7645C22.9111 25.8008 19.3028 28.8281 15.0002 28.8281Z" fill="black"/>
<path d="M7.73977 9.27376C8.65007 8.36341 8.65007 6.88219 7.73972 5.97178C6.8811 5.11317 5.51467 5.06448 4.59828 5.82542C3.68177 5.06436 2.3154 5.11334 1.45684 5.97178C1.01587 6.41281 0.772949 6.99914 0.772949 7.6228C0.772949 8.24651 1.01587 8.83279 1.45684 9.27382L4.18397 12.001C4.29389 12.1109 4.44289 12.1726 4.59828 12.1726C4.75367 12.1726 4.90267 12.1109 5.01259 12.001L7.73977 9.27376ZM2.2854 8.44514C2.06573 8.22548 1.9448 7.93346 1.9448 7.6228C1.9448 7.31214 2.06579 7.02012 2.28546 6.80045C2.51221 6.5737 2.80998 6.46032 3.1078 6.46032C3.40557 6.46032 3.70345 6.57376 3.93009 6.80039L4.18385 7.05422C4.29377 7.16414 4.44277 7.22589 4.59816 7.22589H4.59822C4.75361 7.22589 4.90267 7.16414 5.01253 7.05428L5.26635 6.80045C5.7198 6.34706 6.45759 6.34706 6.91104 6.80039C7.36449 7.2539 7.36449 7.99176 6.91104 8.44514L4.59828 10.758L2.2854 8.44514Z" fill="black"/>
<path d="M28.5428 5.97178C27.6842 5.11322 26.3176 5.06447 25.4014 5.82541C24.4849 5.06436 23.1184 5.11328 22.2599 5.97184C21.3496 6.88219 21.3496 8.36341 22.2599 9.27376L24.9871 12.0009C25.097 12.1108 25.246 12.1726 25.4014 12.1726C25.5568 12.1726 25.7058 12.1108 25.8157 12.0009L28.5427 9.27376C28.9838 8.83279 29.2267 8.24646 29.2267 7.62274C29.2267 6.99914 28.9838 6.4128 28.5428 5.97178ZM27.7141 8.44514L25.4013 10.758L23.0884 8.44514C22.635 7.99175 22.635 7.2539 23.0884 6.80045C23.3152 6.5737 23.6129 6.46032 23.9108 6.46032C24.2086 6.46032 24.5064 6.57376 24.7331 6.80045L24.9869 7.05427C25.0969 7.16414 25.2459 7.22589 25.4013 7.22589C25.5567 7.22589 25.7057 7.16414 25.8156 7.05422L26.0693 6.80045C26.5229 6.34695 27.2606 6.34706 27.714 6.80045C27.9337 7.02012 28.0547 7.31214 28.0547 7.6228C28.0547 7.93345 27.9339 8.22548 27.7141 8.44514Z" fill="black"/>
<path d="M16.6936 19.1162C16.808 19.2306 16.958 19.2878 17.1079 19.2878C17.2578 19.2878 17.4078 19.2306 17.5222 19.1162L19.6692 16.9692C20.0399 16.5985 20.2441 16.1056 20.2441 15.5813C20.2441 15.0569 20.04 14.5641 19.6692 14.1933C19.2984 13.8225 18.8056 13.6184 18.2813 13.6184C17.8526 13.6184 17.445 13.7549 17.1079 14.0073C16.7708 13.7549 16.3632 13.6184 15.9345 13.6184C15.4102 13.6184 14.9174 13.8225 14.5466 14.1933C14.1758 14.5641 13.9717 15.0569 13.9717 15.5813C13.9717 16.1056 14.1758 16.5984 14.5466 16.9692L16.6936 19.1162ZM15.3753 15.0221C15.5247 14.8726 15.7232 14.7904 15.9345 14.7904C16.1458 14.7904 16.3444 14.8726 16.4938 15.0221L16.6936 15.2219C16.9225 15.4506 17.2933 15.4506 17.5223 15.2219L17.7221 15.0221C17.8714 14.8726 18.07 14.7904 18.2813 14.7904C18.4926 14.7904 18.6912 14.8726 18.8406 15.0221C19.149 15.3304 19.149 15.8322 18.8406 16.1406L17.108 17.8732L15.3753 16.1406C15.0668 15.8322 15.0668 15.3304 15.3753 15.0221Z" fill="black"/>
<path d="M20.332 20.2537C20.4861 20.2537 20.6373 20.191 20.7462 20.082C20.8552 19.9724 20.918 19.8218 20.918 19.6677C20.918 19.5136 20.8553 19.3625 20.7462 19.2535C20.6373 19.1439 20.4861 19.0818 20.332 19.0818C20.1779 19.0818 20.0268 19.1439 19.9178 19.2535C19.8088 19.3625 19.7461 19.5136 19.7461 19.6677C19.7461 19.8218 19.8087 19.973 19.9178 20.082C20.0268 20.191 20.1779 20.2537 20.332 20.2537Z" fill="black"/>
<path d="M11.0701 14.1752C10.9611 14.2842 10.8984 14.4348 10.8984 14.5895C10.8984 14.7442 10.9611 14.8948 11.0701 15.0037C11.1791 15.1127 11.3303 15.1754 11.4844 15.1754C11.6385 15.1754 11.7896 15.1127 11.8986 15.0037C12.0076 14.8948 12.0703 14.7436 12.0703 14.5895C12.0703 14.4354 12.0076 14.2842 11.8986 14.1752C11.7896 14.0662 11.6385 14.0035 11.4844 14.0035C11.3303 14.0035 11.1791 14.0662 11.0701 14.1752Z" fill="black"/>
<path d="M14.8088 12.0009C14.9177 11.8919 14.9805 11.7408 14.9805 11.5867C14.9805 11.4326 14.9178 11.2814 14.8088 11.1724C14.6992 11.0634 14.5486 11.0007 14.3945 11.0007C14.2404 11.0007 14.0893 11.0634 13.9797 11.1724C13.8707 11.2814 13.8086 11.4326 13.8086 11.5867C13.8086 11.7408 13.8707 11.8919 13.9797 12.0009C14.0893 12.1099 14.2404 12.1726 14.3945 12.1726C14.5486 12.1726 14.6992 12.1099 14.8088 12.0009Z" fill="black"/>
<path d="M15.8394 26.1516C15.6853 26.1516 15.5341 26.2142 15.4251 26.3233C15.3161 26.4323 15.2534 26.5834 15.2534 26.7375C15.2534 26.8917 15.3161 27.0428 15.4251 27.1517C15.5341 27.2613 15.6853 27.3235 15.8394 27.3235C15.9935 27.3235 16.1446 27.2613 16.2536 27.1517C16.3625 27.0428 16.4253 26.8922 16.4253 26.7375C16.4253 26.5834 16.3626 26.4323 16.2536 26.3233C16.1446 26.2142 15.994 26.1516 15.8394 26.1516Z" fill="black"/>
<path d="M11.4843 21.3584C10.3858 21.3584 9.49219 22.2521 9.49219 23.3505C9.49219 24.449 10.3858 25.3427 11.4843 25.3427C12.5828 25.3427 13.4765 24.449 13.4765 23.3505C13.4765 22.2521 12.5828 21.3584 11.4843 21.3584ZM11.4843 24.1708C11.032 24.1708 10.664 23.8029 10.664 23.3505C10.664 22.8982 11.032 22.5303 11.4843 22.5303C11.9367 22.5303 12.3046 22.8982 12.3046 23.3505C12.3046 23.8029 11.9367 24.1708 11.4843 24.1708Z" fill="black"/>
<path d="M23.2233 14.6188C23.3323 14.5099 23.395 14.3587 23.395 14.2046C23.395 14.0505 23.3324 13.8993 23.2233 13.7903C23.1144 13.6808 22.9632 13.6187 22.8091 13.6187C22.6544 13.6187 22.5038 13.6813 22.3949 13.7903C22.2859 13.8993 22.2231 14.05 22.2231 14.2046C22.2231 14.3587 22.2858 14.5099 22.3949 14.6188C22.5038 14.7278 22.655 14.7905 22.8091 14.7905C22.9632 14.7905 23.1144 14.7278 23.2233 14.6188Z" fill="black"/>
</g>
<defs>
<clipPath id="clip0_322_1035">
<rect width="30" height="30" fill="white"/>
</clipPath>
</defs>
</svg>
