<svg width="30" height="30" viewBox="0 0 30 30" fill="none" xmlns="http://www.w3.org/2000/svg">
<g clip-path="url(#clip0_322_909)">
<path d="M29.3796 15.2788C29.5029 15.3431 29.5739 15.4766 29.5585 15.6148L29.0095 20.525C28.5709 24.4473 25.5649 27.461 21.8541 28.0769C21.7932 28.0869 21.7304 28.08 21.6733 28.0566C18.1898 26.6364 15.9247 23.0333 16.3633 19.111L16.9123 14.2007C16.9278 14.0626 17.0265 13.9481 17.1609 13.9125L21.4695 12.7735C21.6984 12.713 21.9167 12.9013 21.8903 13.1366L21.8725 13.2966C21.779 14.1325 22.3635 14.9059 23.1978 15.013C24.0498 15.1224 24.8227 14.5125 24.9178 13.6622L24.9384 13.4778C24.9647 13.2425 25.2191 13.107 25.4289 13.2166L29.3796 15.2788Z" fill="#FB3A82"/>
<path d="M26.5999 24.2362C26.5179 24.3048 26.4183 24.3387 26.3187 24.3387C26.1933 24.3387 26.0679 24.2848 25.9812 24.1805C23.5483 21.2632 20.0995 19.4567 16.3647 19.1011L16.4626 18.2274C20.4218 18.6077 24.0763 20.5249 26.6561 23.6175C26.8114 23.8038 26.7862 24.0809 26.5999 24.2362Z" fill="#FB1466"/>
<path d="M27.7651 20.5121C27.6402 20.5121 27.5162 20.4591 27.4293 20.3562C26.8066 19.6193 26.1074 18.9433 25.351 18.3468C25.1604 18.1966 25.1277 17.9202 25.278 17.7296C25.4283 17.539 25.7047 17.5064 25.8952 17.6567C26.6979 18.2896 27.4399 19.007 28.1006 19.789C28.2572 19.9744 28.2339 20.2517 28.0485 20.4083C27.966 20.478 27.8653 20.5121 27.7651 20.5121Z" fill="#FB1466"/>
<path d="M28.4541 22.7537C28.3275 23.0725 28.1828 23.3813 28.0217 23.6789C26.8469 21.8977 25.3141 20.3696 23.5064 19.1906C21.4316 17.8377 19.0797 17.0074 16.627 16.7531L16.7248 15.8795C19.3135 16.1496 21.7961 17.0256 23.9869 18.4547C25.7447 19.6008 27.2564 21.0604 28.4541 22.7537Z" fill="#FB1466"/>
<path d="M29.5578 15.6147L29.0088 20.5248C28.5705 24.4471 25.5646 27.4611 21.8539 28.077C21.793 28.0869 21.7303 28.0799 21.6729 28.0565C21.1051 27.825 20.5695 27.5356 20.0732 27.1957C23.8139 26.5494 26.8367 23.5014 27.2791 19.5404L27.8363 14.5559C27.8393 14.5277 27.8393 14.4996 27.8352 14.4727L29.3791 15.2789C29.5027 15.3434 29.5736 15.4764 29.5578 15.6147Z" fill="#FB1466"/>
<path d="M0.620426 15.2788C0.497144 15.3431 0.426129 15.4766 0.441539 15.6148L0.990562 20.525C1.42914 24.4473 4.43511 27.461 8.14597 28.0769C8.20685 28.0869 8.2696 28.08 8.32673 28.0566C11.8102 26.6364 14.0754 23.0333 13.6368 19.111L13.0878 14.2007C13.0723 14.0626 12.9736 13.9481 12.8392 13.9125L8.53052 12.7735C8.30166 12.713 8.08339 12.9013 8.1097 13.1366L8.12757 13.2966C8.22103 14.1325 7.63656 14.9059 6.80224 15.013C5.95023 15.1224 5.17738 14.5125 5.08228 13.6622L5.06166 13.4778C5.03535 13.2425 4.78093 13.107 4.57111 13.2166L0.620426 15.2788Z" fill="#FB3A82"/>
<path d="M13.5375 18.2273L13.6354 19.1009C9.90062 19.4566 6.45179 21.263 4.01898 24.1804C3.86371 24.3667 3.58656 24.3919 3.40023 24.2361C3.2139 24.0808 3.18871 23.8037 3.34398 23.6173C5.92386 20.5248 9.57835 18.6076 13.5375 18.2273Z" fill="#FB1466"/>
<path d="M2.23467 20.5119C2.13448 20.5119 2.03381 20.4779 1.95126 20.4081C1.76586 20.2515 1.74254 19.9743 1.89922 19.7889C2.55987 19.0069 3.30184 18.2895 4.10464 17.6565C4.29506 17.5063 4.57145 17.5389 4.7218 17.7295C4.87204 17.9201 4.8394 18.1964 4.64879 18.3466C3.89241 18.9431 3.19315 19.6192 2.57053 20.3561C2.48364 20.4589 2.3596 20.5119 2.23467 20.5119Z" fill="#FB1466"/>
<path d="M13.373 16.753C10.9203 17.0073 8.56836 17.8376 6.49355 19.1905C4.68594 20.3694 3.15312 21.8976 1.97832 23.6788C1.81719 23.3812 1.67246 23.0724 1.5459 22.7536C2.74355 21.0603 4.25527 19.6007 6.01308 18.4546C8.2039 17.0255 10.6865 16.1495 13.2752 15.8794L13.373 16.753Z" fill="#FB1466"/>
<path d="M10.109 27.0673C7.30293 25.1437 5.46191 21.9134 5.46191 18.2548V14.513C5.78652 14.8769 6.2793 15.0802 6.80195 15.0128C7.63633 14.9062 8.22109 14.1327 8.12734 13.2966L8.10977 13.1366C8.0834 12.9011 8.30137 12.713 8.53047 12.7733L12.8389 13.9124C12.9736 13.9482 13.0721 14.0624 13.0873 14.2007L13.6363 19.1108C13.9949 22.3148 12.5494 25.3054 10.109 27.0673Z" fill="#FB1466"/>
<path d="M22.6108 11.0382C22.7713 11.1004 22.8771 11.2548 22.8771 11.427V17.5439C22.8771 22.4302 19.5933 26.5516 15.1122 27.8199C15.0388 27.8407 14.9605 27.8407 14.8871 27.8199C10.4056 26.5517 7.12305 22.4302 7.12305 17.5439V11.427C7.12305 11.2548 7.22881 11.1004 7.3893 11.0382L12.5338 9.04409C12.8071 8.93815 13.1015 9.13977 13.1015 9.43286V9.63219C13.1015 10.6736 13.927 11.5447 14.9683 11.5617C16.0316 11.579 16.8986 10.7223 16.8986 9.66296V9.43321C16.8986 9.14012 17.193 8.9385 17.4662 9.04438L22.6108 11.0382Z" fill="#FCA62F"/>
<path d="M22.877 11.4269V17.5441C22.877 22.4302 19.5934 26.5517 15.1121 27.8196C15.0389 27.8407 14.9609 27.8407 14.8871 27.8196C14.4037 27.6831 13.9344 27.5132 13.4814 27.3122C13.4832 27.3122 13.485 27.3116 13.4867 27.3111C18.0166 26.0284 21.3371 21.8618 21.3371 16.9218V10.7372C21.3371 10.6593 21.3154 10.5855 21.2768 10.5216L22.6109 11.0384C22.7715 11.1005 22.877 11.2546 22.877 11.4269Z" fill="#F98824"/>
<path d="M15.0663 26.0889C15.0232 26.1034 14.9762 26.1034 14.933 26.0889C11.2912 24.8689 8.79102 21.4278 8.79102 17.5439V12.4265C8.79102 12.3404 8.84393 12.2632 8.92414 12.2321L11.5736 11.2051C11.6734 11.1664 11.7852 11.2102 11.8347 11.3052C12.4297 12.4477 13.6254 13.2298 15.0001 13.2298C16.3748 13.2298 17.5704 12.4479 18.1655 11.3054C18.215 11.2105 18.3268 11.1666 18.4266 11.2053L21.0761 12.2322C21.1563 12.2633 21.2092 12.3405 21.2092 12.4266V17.5439C21.2093 21.4275 18.7087 24.8687 15.0663 26.0889Z" fill="#31A7FB"/>
<path d="M21.1677 18.4042C21.1396 18.7031 21.0962 18.9978 21.0382 19.2884L19.8534 20.141C19.7702 20.2007 19.6565 20.1914 19.5845 20.1193L18.995 19.5298C18.9558 19.4906 18.903 19.4689 18.8474 19.4689H15.8778C15.7624 19.4689 15.6692 19.5621 15.6692 19.6775V24.9533C15.6692 25.0083 15.6909 25.0617 15.7302 25.1009L16.2335 25.6037C15.8597 25.7912 15.47 25.9535 15.0663 26.0888C15.0229 26.1035 14.9761 26.1035 14.9333 26.0888C14.5296 25.9535 14.1405 25.7912 13.7667 25.6037L14.27 25.1009C14.3093 25.0617 14.331 25.0083 14.331 24.9533V19.6775C14.331 19.5621 14.2378 19.4689 14.1224 19.4689H11.1528C11.0972 19.4689 11.0444 19.4906 11.0052 19.5298L10.4157 20.1193C10.3437 20.1914 10.23 20.2007 10.1468 20.141L8.96201 19.2884C8.904 18.9978 8.86064 18.7031 8.83252 18.4042L10.1468 17.4585C10.23 17.3988 10.3437 17.4082 10.4157 17.4802L11.0052 18.0697C11.0444 18.1089 11.0972 18.1306 11.1528 18.1306H14.1224C14.2378 18.1306 14.331 18.0374 14.331 17.922V15.191C14.331 15.1353 14.3093 15.0826 14.27 15.0433L13.6806 14.4544C13.6085 14.3818 13.5991 14.2681 13.6589 14.1849L14.3843 13.1765C14.5847 13.2117 14.7903 13.2298 15.0001 13.2298C15.2099 13.2298 15.4155 13.2117 15.6159 13.1765L16.3413 14.1849C16.4011 14.2681 16.3917 14.3818 16.3196 14.4544L15.7302 15.0433C15.6909 15.0826 15.6692 15.1353 15.6692 15.191V17.922C15.6692 18.0374 15.7624 18.1306 15.8778 18.1306H18.8474C18.903 18.1306 18.9558 18.1089 18.995 18.0697L19.5845 17.4802C19.6565 17.4082 19.7702 17.3988 19.8534 17.4585L21.1677 18.4042Z" fill="#1C96F9"/>
<path d="M21.209 12.4267V17.5441C21.209 21.4273 18.7085 24.8689 15.0663 26.0891C15.0231 26.1035 14.9758 26.1035 14.9331 26.0891C14.7023 26.012 14.476 25.9255 14.2544 25.8304C17.5247 24.4303 19.7183 21.181 19.7183 17.5441V11.7063L21.0758 12.2324C21.156 12.2632 21.209 12.3403 21.209 12.4267Z" fill="#1C96F9"/>
<path d="M19.584 16.2912L18.9949 16.8804C18.9558 16.9194 18.9028 16.9414 18.8475 16.9414H15.8776C15.7624 16.9414 15.6691 16.8481 15.6691 16.7329V14.0015C15.6691 13.9462 15.6911 13.8932 15.7302 13.8541L16.3193 13.2649C16.3916 13.1927 16.4008 13.0787 16.3411 12.9958L15.1692 11.367C15.086 11.2514 14.9139 11.2514 14.8307 11.367L13.6588 12.9958C13.599 13.0787 13.6083 13.1927 13.6806 13.2649L14.2697 13.8541C14.3088 13.8932 14.3308 13.9462 14.3308 14.0015V16.7329C14.3308 16.8481 14.2374 16.9414 14.1223 16.9414H11.1524C11.0971 16.9414 11.0441 16.9194 11.005 16.8804L10.4158 16.2912C10.3436 16.2189 10.2296 16.2097 10.1466 16.2694L8.51786 17.4413C8.40225 17.5245 8.40225 17.6966 8.51786 17.7798L10.1466 18.9517C10.2296 19.0114 10.3436 19.0022 10.4158 18.9299L11.005 18.3408C11.0441 18.3017 11.0971 18.2797 11.1524 18.2797H14.1223C14.2374 18.2797 14.3308 18.3731 14.3308 18.4882V23.7641C14.3308 23.8194 14.3088 23.8725 14.2697 23.9115L13.6806 24.5007C13.6083 24.573 13.599 24.6869 13.6588 24.7699L14.8307 26.3987C14.9139 26.5143 15.086 26.5143 15.1692 26.3987L16.3411 24.7699C16.4008 24.6869 16.3916 24.573 16.3193 24.5007L15.7302 23.9115C15.6911 23.8725 15.6691 23.8194 15.6691 23.7641V18.4882C15.6691 18.3731 15.7624 18.2797 15.8776 18.2797H18.8475C18.9028 18.2797 18.9558 18.3017 18.9949 18.3408L19.584 18.9299C19.6563 19.0022 19.7703 19.0114 19.8532 18.9517L21.482 17.7798C21.5976 17.6966 21.5976 17.5245 21.482 17.4413L19.8532 16.2694C19.7703 16.2097 19.6563 16.2189 19.584 16.2912Z" fill="#FFD496"/>
<path d="M6.69914 7.14489H5.46152V5.90733C5.46152 5.70963 5.30127 5.54944 5.10363 5.54944H3.51053C3.31283 5.54944 3.15264 5.70969 3.15264 5.90733V7.14489H1.91502C1.71732 7.14489 1.55713 7.30514 1.55713 7.50278V9.09588C1.55713 9.29358 1.71738 9.45378 1.91502 9.45378H3.15258V10.6913C3.15258 10.889 3.31283 11.0492 3.51047 11.0492H5.10357C5.30127 11.0492 5.46146 10.889 5.46146 10.6913V9.45378H6.69902C6.89672 9.45378 7.05691 9.29352 7.05691 9.09588V7.50278C7.05703 7.30508 6.89678 7.14489 6.69914 7.14489Z" fill="#64B9FC"/>
<path d="M5.46164 5.90721V7.14488H4.59615C4.39846 7.14488 4.23826 6.98463 4.23826 6.78699V5.90721C4.23826 5.70963 4.07789 5.54932 3.88037 5.54932H5.10381C5.30139 5.54926 5.46164 5.70951 5.46164 5.90721Z" fill="#31A7FB"/>
<path d="M4.59621 9.45386H5.4617V10.6912C5.4617 10.8889 5.30145 11.0491 5.10381 11.0491H3.88037C4.07795 11.0491 4.23826 10.8891 4.23826 10.6912V9.81175C4.23832 9.61411 4.39857 9.45386 4.59621 9.45386Z" fill="#31A7FB"/>
<path d="M7.05691 7.50279V9.09589C7.05691 9.29347 6.89695 9.45378 6.69902 9.45378H5.47559C5.67352 9.45378 5.83348 9.29341 5.83348 9.09589V7.50279C5.83348 7.30486 5.67352 7.1449 5.47559 7.1449H6.69902C6.89689 7.1449 7.05691 7.30486 7.05691 7.50279Z" fill="#31A7FB"/>
<path d="M28.0848 7.14489H26.8472V5.90733C26.8472 5.70963 26.687 5.54944 26.4893 5.54944H24.8962C24.6985 5.54944 24.5383 5.70969 24.5383 5.90733V7.14489H23.3008C23.1031 7.14489 22.9429 7.30514 22.9429 7.50278V9.09588C22.9429 9.29358 23.1031 9.45378 23.3008 9.45378H24.5383V10.6913C24.5383 10.889 24.6986 11.0492 24.8962 11.0492H26.4893C26.687 11.0492 26.8472 10.889 26.8472 10.6913V9.45378H28.0848C28.2825 9.45378 28.4427 9.29352 28.4427 9.09588V7.50278C28.4427 7.30508 28.2824 7.14489 28.0848 7.14489Z" fill="#64B9FC"/>
<path d="M26.8474 5.90721V7.14488H25.9819C25.7842 7.14488 25.624 6.98463 25.624 6.78699V5.90721C25.624 5.70963 25.4636 5.54932 25.2661 5.54932H26.4896C26.6872 5.54926 26.8474 5.70951 26.8474 5.90721Z" fill="#31A7FB"/>
<path d="M25.982 9.45386H26.8474V10.6912C26.8474 10.8889 26.6872 11.0491 26.4896 11.0491H25.2661C25.4637 11.0491 25.624 10.8891 25.624 10.6912V9.81175C25.6241 9.61411 25.7843 9.45386 25.982 9.45386Z" fill="#31A7FB"/>
<path d="M28.4427 7.50279V9.09589C28.4427 9.29347 28.2827 9.45378 28.0848 9.45378H26.8613C27.0593 9.45378 27.2192 9.29341 27.2192 9.09589V7.50279C27.2192 7.30486 27.0593 7.1449 26.8613 7.1449H28.0848C28.2826 7.1449 28.4427 7.30486 28.4427 7.50279Z" fill="#31A7FB"/>
<path d="M17.3919 3.51439H16.1543V2.27684C16.1543 2.07914 15.9941 1.91895 15.7964 1.91895H14.2033C14.0056 1.91895 13.8454 2.0792 13.8454 2.27684V3.51439H12.6079C12.4102 3.51439 12.25 3.67465 12.25 3.87229V5.46539C12.25 5.66309 12.4103 5.82328 12.6079 5.82328H13.8454V7.06084C13.8454 7.25854 14.0057 7.41873 14.2033 7.41873H15.7964C15.9941 7.41873 16.1543 7.25848 16.1543 7.06084V5.82334H17.3919C17.5896 5.82334 17.7498 5.66309 17.7498 5.46545V3.87229C17.7498 3.67465 17.5896 3.51439 17.3919 3.51439Z" fill="#64B9FC"/>
<path d="M16.1545 2.27671V3.51439H15.289C15.0913 3.51439 14.9311 3.35414 14.9311 3.1565V2.27671C14.9311 2.07914 14.7708 1.91882 14.5732 1.91882H15.7967C15.9943 1.91882 16.1545 2.07902 16.1545 2.27671Z" fill="#31A7FB"/>
<path d="M15.2891 5.82336H16.1546V7.06069C16.1546 7.25838 15.9943 7.41858 15.7967 7.41858H14.5732C14.7708 7.41858 14.9311 7.25856 14.9311 7.06069V6.18125C14.9311 5.98362 15.0914 5.82336 15.2891 5.82336Z" fill="#31A7FB"/>
<path d="M17.7498 3.87229V5.4654C17.7498 5.66298 17.5898 5.82329 17.3919 5.82329H16.1685C16.3664 5.82329 16.5263 5.66292 16.5263 5.4654V3.87229C16.5263 3.67437 16.3664 3.5144 16.1685 3.5144H17.3919C17.5898 3.51435 17.7498 3.67437 17.7498 3.87229Z" fill="#31A7FB"/>
<path d="M25.278 16.77C25.1277 16.9606 25.1604 17.2369 25.351 17.3872C26.1074 17.9836 26.8066 18.6597 27.4292 19.3966C27.5161 19.4995 27.6402 19.5524 27.765 19.5524C27.8652 19.5524 27.9659 19.5183 28.0484 19.4487C28.2338 19.292 28.2571 19.0148 28.1005 18.8294C27.4398 18.0475 26.6979 17.33 25.8951 16.6971C25.7046 16.5468 25.4283 16.5795 25.278 16.77Z" fill="black"/>
<path d="M4.72174 16.77C4.57139 16.5794 4.295 16.5468 4.10458 16.6971C3.30184 17.33 2.55987 18.0474 1.89922 18.8294C1.74254 19.0148 1.76586 19.292 1.95126 19.4486C2.03381 19.5184 2.13448 19.5524 2.23467 19.5524C2.35959 19.5524 2.48364 19.4994 2.57053 19.3965C3.19315 18.6597 3.89235 17.9836 4.64879 17.3871C4.83934 17.237 4.87204 16.9606 4.72174 16.77Z" fill="black"/>
<path d="M29.9593 24.3947C29.673 23.7759 29.3463 23.1759 28.9842 22.5977C29.2124 21.9503 29.3678 21.273 29.446 20.5738L29.9951 15.6636C30.0305 15.3476 29.8648 15.0364 29.5828 14.8892L28.6886 14.4225C28.4737 14.3102 28.208 14.3935 28.0958 14.6088C27.9834 14.8239 28.0668 15.0894 28.282 15.2017L29.1138 15.6359L28.5726 20.4762C28.5275 20.8798 28.4537 21.2753 28.3527 21.6608C27.0112 19.812 25.2873 18.2369 23.3164 17.0814V15.4628C23.3436 15.4639 23.3708 15.4655 23.3979 15.4655C23.8373 15.4655 24.2609 15.3197 24.6121 15.0438C25.0314 14.7143 25.295 14.2411 25.3543 13.711L25.3583 13.6756L26.5874 14.3173C26.8025 14.4295 27.068 14.3462 27.1804 14.131C27.2927 13.9159 27.2093 13.6504 26.9941 13.5381L25.6321 12.8271C25.4048 12.7086 25.1342 12.7096 24.9081 12.83C24.682 12.9504 24.5299 13.1743 24.5014 13.429L24.4808 13.6134C24.4479 13.9074 24.3017 14.1699 24.0692 14.3526C23.8534 14.5221 23.5884 14.6017 23.3163 14.5822V11.427C23.3163 11.0761 23.0965 10.7552 22.7694 10.6285L17.6249 8.63472C17.3615 8.53259 17.0647 8.56698 16.8315 8.72665C16.5983 8.88644 16.459 9.15052 16.459 9.43323V9.66292C16.459 10.2987 16.0548 10.8469 15.4707 11.0443C15.3493 10.9158 15.1789 10.8408 14.9999 10.8408C14.8219 10.8408 14.6525 10.9151 14.5311 11.0424C13.9535 10.8395 13.5408 10.2705 13.5408 9.63216V9.43282C13.5408 9.15011 13.4016 8.88597 13.1684 8.72624C12.9352 8.56652 12.6386 8.53224 12.3749 8.63431L7.23042 10.6284C6.90335 10.7552 6.68356 11.0761 6.68356 11.4269V14.582C6.41157 14.6016 6.14649 14.522 5.93063 14.3525C5.69807 14.1698 5.55194 13.9073 5.51907 13.6132L5.49844 13.4289C5.47003 13.1743 5.31797 12.9503 5.09186 12.8299C4.86569 12.7095 4.59504 12.7083 4.36782 12.8269L0.417311 14.8891C0.135358 15.0362 -0.0304034 15.3475 0.00498724 15.6636L0.553952 20.5738C0.632116 21.273 0.787565 21.9503 1.01579 22.5976C0.653737 23.1758 0.327077 23.7759 0.0407294 24.3947C-0.0611651 24.6149 0.0346943 24.8761 0.255007 24.978C0.314772 25.0057 0.377526 25.0188 0.439284 25.0188C0.60528 25.0188 0.764128 24.9243 0.838366 24.7637C1.02176 24.3674 1.22286 23.9794 1.43954 23.6001C1.84512 24.4165 2.37645 25.1716 3.02444 25.8454C4.37268 27.2472 6.16594 28.1936 8.07387 28.5102C8.116 28.5173 8.15837 28.5207 8.20073 28.5207C8.30034 28.5207 8.39948 28.5015 8.49264 28.4635C9.56139 28.0277 10.5231 27.4003 11.3545 26.5973C12.3896 27.3351 13.5471 27.8974 14.7672 28.2426C14.8432 28.2642 14.9214 28.2749 14.9995 28.2749C15.0776 28.2749 15.1558 28.2642 15.2317 28.2426C16.4538 27.8968 17.6111 27.3351 18.6457 26.5976C19.4768 27.4003 20.4381 28.0276 21.5074 28.4635C21.6005 28.5015 21.6996 28.5207 21.7992 28.5207C21.8415 28.5207 21.8838 28.5173 21.9258 28.5103C23.8339 28.1936 25.6272 27.2473 26.9754 25.8454C27.6234 25.1716 28.1547 24.4165 28.5603 23.6002C28.777 23.9795 28.9782 24.3675 29.1615 24.7637C29.2358 24.9243 29.3946 25.0188 29.5606 25.0188C29.6224 25.0188 29.6851 25.0056 29.7449 24.978C29.9653 24.8761 30.0612 24.6149 29.9593 24.3947ZM19.7559 16.7408L20.9648 17.6106L19.7559 18.4803L19.3056 18.03C19.1831 17.9077 19.0205 17.8403 18.8475 17.8403H15.8777C15.5204 17.8403 15.2297 18.131 15.2297 18.4883V23.7642C15.2297 23.9372 15.2971 24.1 15.4194 24.2223L15.8698 24.6726L15 25.8813L14.1302 24.6725L14.5805 24.2222C14.7029 24.0998 14.7703 23.9371 14.7703 23.764V18.4882C14.7703 18.1309 14.4796 17.8402 14.1223 17.8402H11.1524C10.9795 17.8402 10.8168 17.9076 10.6943 18.03L10.244 18.4803L9.0351 17.6106L10.244 16.7408L10.6943 17.1912C10.8168 17.3135 10.9794 17.3809 11.1524 17.3809H14.1222C14.4795 17.3809 14.7702 17.0902 14.7702 16.7329V14.0016C14.7702 13.8286 14.7029 13.6659 14.5805 13.5434L14.1302 13.0931L15 11.8843L15.8698 13.0931L15.4194 13.5435C15.2971 13.6659 15.2297 13.8286 15.2297 14.0016V16.7329C15.2297 17.0902 15.5204 17.3809 15.8777 17.3809H18.8476C19.0205 17.3809 19.1832 17.3135 19.3058 17.1911L19.7559 16.7408ZM16.6301 24.1898L16.1086 23.6684V18.7191H18.7518L19.2732 19.2405C19.4988 19.4662 19.8506 19.4949 20.1098 19.3084L20.6593 18.9131C20.2675 21.3295 18.8534 23.4634 16.8084 24.7711C16.8485 24.5655 16.7873 24.3471 16.6301 24.1898ZM13.1908 13.2365C13.2141 13.3611 13.274 13.4799 13.3699 13.5758L13.8914 14.0972V16.502H11.2482L10.7268 15.9806C10.5011 15.7549 10.1493 15.7263 9.89016 15.9128L9.2304 16.3874V12.5848L11.5443 11.6878C11.9339 12.3507 12.5073 12.889 13.1908 13.2365ZM13.1917 24.7715C11.1472 23.464 9.73249 21.3298 9.34055 18.913L9.8901 19.3084C10.1493 19.4948 10.5011 19.4662 10.7266 19.2405L11.2481 18.7191H13.8914V23.6683L13.3699 24.1898C13.2126 24.3472 13.1514 24.5658 13.1917 24.7715ZM1.42735 20.4762L0.886237 15.6359L4.64169 13.6755L4.64567 13.711C4.70491 14.241 4.9684 14.7142 5.3877 15.0436C5.76059 15.3366 6.21504 15.4824 6.68356 15.4633V17.0812C4.71223 18.2372 2.98864 19.812 1.64725 21.6609C1.54624 21.2753 1.47247 20.8798 1.42735 20.4762ZM14.9996 27.3949C12.9397 26.8103 11.0729 25.5549 9.74239 23.8595C9.59251 23.6685 9.31624 23.6352 9.1254 23.7851C8.93444 23.9349 8.90116 24.2111 9.05092 24.4021C9.52571 25.007 10.0638 25.56 10.6512 26.0529C9.92924 26.7289 9.10249 27.2617 8.18848 27.6383C6.47678 27.3476 4.86891 26.4953 3.6579 25.2361C2.94018 24.4899 2.38114 23.6331 1.99559 22.6991C3.21838 20.8615 4.83106 19.2799 6.69874 18.1006C6.7234 18.5907 6.77942 19.0785 6.86807 19.5599C5.5401 20.4045 4.35534 21.4455 3.34407 22.6578C3.18862 22.8442 3.21364 23.1213 3.40008 23.2767C3.48223 23.3453 3.58202 23.3787 3.68133 23.3787C3.80713 23.3787 3.93212 23.325 4.01907 23.2208C4.90477 22.1589 5.93169 21.2365 7.0769 20.4725C7.2903 21.2562 7.58795 22.016 7.96735 22.7334C8.04616 22.8825 8.1985 22.9676 8.35624 22.9676C8.42549 22.9676 8.49575 22.9512 8.56126 22.9165C8.77583 22.8031 8.8578 22.5371 8.7443 22.3226C7.97122 20.8605 7.56253 19.2081 7.56253 17.544V11.4424L12.6621 9.46569V9.63222C12.6621 10.5695 13.1967 11.3909 13.9968 11.7738L13.5302 12.4223C12.9751 12.1253 12.5174 11.665 12.2244 11.1023C12.0711 10.8078 11.723 10.6759 11.4147 10.7954L8.7654 11.8224C8.5179 11.9184 8.35167 12.1611 8.35167 12.4265V17.0197L8.26155 17.0846C8.09274 17.206 7.99196 17.4026 7.99196 17.6105C7.99196 17.8185 8.09274 18.0151 8.26155 18.1365L8.37739 18.2198C8.63327 21.7873 10.9005 24.9271 14.2088 26.2862L14.4742 26.6552C14.5956 26.8239 14.7923 26.9246 15.0002 26.9246C15.2081 26.9246 15.4048 26.8239 15.5262 26.6551L15.792 26.2857C19.1013 24.9257 21.3672 21.7866 21.623 18.2198L21.7389 18.1365C21.9077 18.0151 22.0085 17.8184 22.0085 17.6105C22.0085 17.4026 21.9077 17.2059 21.7389 17.0845L21.6488 17.0197V15.589C21.6488 15.3463 21.4521 15.1496 21.2093 15.1496C20.9665 15.1496 20.7698 15.3463 20.7698 15.589V16.3873C20.7698 16.3873 20.1103 15.9126 20.1101 15.9125C19.8508 15.7261 19.4991 15.7548 19.2735 15.9803L18.7521 16.5018H16.1086V14.097L16.6301 13.5755C16.7259 13.4797 16.7858 13.361 16.8091 13.2364C17.4928 12.889 18.0659 12.3508 18.4556 11.6878L20.7696 12.5846V13.6753C20.7696 13.918 20.9663 14.1148 21.2091 14.1148C21.4518 14.1148 21.6485 13.918 21.6485 13.6753V12.4266C21.6485 12.1611 21.4822 11.9184 21.2347 11.8225L18.5852 10.7957C18.2772 10.6763 17.929 10.8081 17.7757 11.1025C17.4824 11.6654 17.025 12.1253 16.4699 12.4223L16.005 11.776C16.8042 11.3979 17.3381 10.5877 17.3381 9.66298V9.46611L22.4377 11.4424V17.5439C22.4377 19.818 21.7076 21.9713 20.3264 23.7711C18.9899 25.5124 17.0984 26.7992 14.9996 27.3949ZM26.3421 25.2361C25.131 26.4953 23.5231 27.3476 21.8115 27.6383C20.897 27.2616 20.0705 26.7291 19.3489 26.0533C19.9669 25.5346 20.5302 24.949 21.0236 24.3061C21.9132 23.1469 22.554 21.8527 22.9283 20.4762C24.0715 21.2395 25.0968 22.1607 25.9809 23.2208C26.0678 23.3249 26.1928 23.3787 26.3187 23.3787C26.4179 23.3787 26.5177 23.3453 26.5999 23.2767C26.7864 23.1213 26.8114 22.8442 26.6559 22.6578C25.6457 21.4467 24.4619 20.4064 23.1352 19.5621C23.2226 19.0826 23.2783 18.5949 23.3024 18.1012C25.1692 19.2801 26.7817 20.862 28.0044 22.6992C27.6188 23.6331 27.0598 24.4899 26.3421 25.2361Z" fill="black"/>
<path d="M1.91551 9.89323H2.71361V10.6913C2.71361 11.131 3.07127 11.4887 3.51096 11.4887H5.104C5.54369 11.4887 5.90135 11.131 5.90135 10.6913V9.89323H6.69951C7.1392 9.89323 7.49686 9.53557 7.49686 9.09588V7.50278C7.49686 7.06309 7.1392 6.70543 6.69951 6.70543H5.90135V5.90733C5.90135 5.46764 5.54369 5.10999 5.104 5.10999H3.51096C3.07127 5.10999 2.71361 5.46764 2.71361 5.90733V6.70543H1.91551C1.47582 6.70543 1.11816 7.06309 1.11816 7.50278V9.09588C1.11816 9.53557 1.47582 9.89323 1.91551 9.89323ZM1.99707 7.58434H3.15307C3.39582 7.58434 3.59252 7.38758 3.59252 7.14489V5.98883H5.0225V7.14489C5.0225 7.38758 5.2192 7.58434 5.46195 7.58434H6.61801V9.01438H5.46195C5.2192 9.01438 5.0225 9.21114 5.0225 9.45383V10.6098H3.59252V9.45383C3.59252 9.21114 3.39582 9.01438 3.15307 9.01438H1.99707V7.58434Z" fill="black"/>
<path d="M23.3008 9.89323H24.0989V10.6913C24.0989 11.131 24.4566 11.4887 24.8963 11.4887H26.4893C26.929 11.4887 27.2867 11.131 27.2867 10.6913V9.89323H28.0848C28.5244 9.89323 28.8821 9.53557 28.8821 9.09588V7.50278C28.8821 7.06309 28.5244 6.70543 28.0848 6.70543H27.2867V5.90733C27.2867 5.46764 26.929 5.10999 26.4893 5.10999H24.8963C24.4566 5.10999 24.0989 5.46764 24.0989 5.90733V6.70543H23.3008C22.8611 6.70543 22.5034 7.06309 22.5034 7.50278V9.09588C22.5034 9.53557 22.8611 9.89323 23.3008 9.89323ZM23.3823 7.58434H24.5384C24.7811 7.58434 24.9778 7.38758 24.9778 7.14489V5.98883H26.4078V7.14489C26.4078 7.38758 26.6045 7.58434 26.8473 7.58434H28.0033V9.01438H26.8473C26.6045 9.01438 26.4078 9.21114 26.4078 9.45383V10.6098H24.9778V9.45383C24.9778 9.21114 24.7811 9.01438 24.5384 9.01438H23.3823V7.58434Z" fill="black"/>
<path d="M12.6079 6.26273H13.406V7.06083C13.406 7.50052 13.7637 7.85818 14.2033 7.85818H15.7964C16.2361 7.85818 16.5938 7.50052 16.5938 7.06083V6.26273H17.3919C17.8316 6.26273 18.1892 5.90507 18.1892 5.46539V3.87228C18.1892 3.43259 17.8316 3.07494 17.3919 3.07494H16.5938V2.27677C16.5938 1.83708 16.2361 1.47937 15.7964 1.47937H14.2033C13.7637 1.47937 13.406 1.83708 13.406 2.27677V3.07488H12.6079C12.1682 3.07488 11.8105 3.43253 11.8105 3.87222V5.46533C11.8105 5.90501 12.1682 6.26273 12.6079 6.26273ZM12.6895 3.95378H13.8454C14.0882 3.95378 14.2849 3.75703 14.2849 3.51433V2.35828H15.7149V3.51433C15.7149 3.75703 15.9116 3.95378 16.1544 3.95378H17.3104V5.38382H16.1544C15.9116 5.38382 15.7149 5.58058 15.7149 5.82328V6.97933H14.2849V5.82328C14.2849 5.58058 14.0882 5.38382 13.8454 5.38382H12.6895V3.95378Z" fill="black"/>
</g>
<defs>
<clipPath id="clip0_322_909">
<rect width="30" height="30" fill="white"/>
</clipPath>
</defs>
</svg>
