<svg width="30" height="30" viewBox="0 0 30 30" fill="none" xmlns="http://www.w3.org/2000/svg">
<g clip-path="url(#clip0_322_837)">
<path d="M4.91953 15.1387C5.10797 15.0599 5.2558 14.9002 5.29834 14.7004C5.51385 13.6896 3.16113 13.4329 3.40307 12.3386C3.70289 10.9827 5.03648 9.90324 4.95521 10.5893C4.87394 11.2754 5.31803 12.6945 6.09504 12.8912C6.87205 13.0879 7.37941 12.5214 6.96228 11.1504C6.54516 9.77926 4.54418 8.66094 6.196 7.44207C7.84781 6.2232 9.56889 5.46055 8.56148 3.65615C7.6858 2.08772 6.93111 1.50764 7.52303 0.637346C7.68064 0.405607 8.00912 0.370217 8.2084 0.567267C8.65699 1.01082 9.53596 1.75531 10.6076 2.03639C12.1758 2.44777 13.4515 4.33625 11.4578 5.70014C9.46418 7.06402 10.9218 9.21072 11.8222 8.9682C12.7227 8.72563 13.2716 7.91029 13.06 7.12332C12.8484 6.33635 13.3877 6.156 14.0617 6.55725C14.5055 6.8215 16.0719 7.89213 15.7735 9.40162C15.6778 9.88578 15.1211 10.543 15.7924 11.0627C16.3775 11.5157 18.3336 11.8493 17.8461 9.15793C17.6988 8.34459 16.4861 6.57102 17.9442 6.004C18.9635 5.60762 20.8821 6.35305 20.8679 4.86154C20.8536 3.37004 22.743 4.51074 21.988 6.36951C21.233 8.22828 19.1758 8.82494 21.1108 11.1934C22.6514 13.0792 23.6896 14.3001 23.5386 16.2591C23.4952 16.8236 24.252 17.0659 24.5418 16.5796C24.6847 16.3397 24.8009 16.0715 24.8643 15.7777C24.9299 15.4738 25.2345 15.2855 25.5342 15.3686C25.7483 15.428 25.9042 15.6127 25.9255 15.8339C25.9939 16.544 26.0179 18.1088 25.0713 19.0354C24.3829 19.7093 24.0964 20.7761 24.2823 22.286C24.6604 25.3581 21.7935 24.2256 21.6477 24.7011C21.4086 25.4812 23.3016 25.9708 22.9101 26.7045C20.2812 31.6303 5.76809 29.5132 4.42576 25.4121C3.67207 23.1093 7.51418 22.5879 4.57283 20.0445C3.49113 19.1092 3.13693 17.6618 3.55605 16.5228C3.83203 15.7728 4.5985 15.2728 4.91953 15.1387Z" fill="#FB1466"/>
<path d="M25.0713 19.0357C24.3828 19.7095 24.0963 20.7765 24.282 22.2859C24.6605 25.3579 21.7936 24.2259 21.6477 24.7011C21.4086 25.481 23.3018 25.9708 22.9104 26.7044C21.9752 28.4564 19.5365 29.3177 16.7217 29.5152C18.643 28.9527 20.2391 27.9208 21.0758 26.3528C21.4672 25.6193 19.574 25.1294 19.8131 24.3495C19.959 23.8743 22.826 25.0064 22.448 21.9343C22.2617 20.4249 22.5482 19.3579 23.2367 18.6841C23.7529 18.1784 23.9809 17.4829 24.0693 16.8401C24.2475 16.8472 24.4297 16.7681 24.5416 16.58C24.6846 16.3398 24.8012 16.0714 24.8645 15.7778C24.9301 15.4737 25.2348 15.2857 25.5342 15.3689C25.6414 15.3982 25.734 15.4591 25.8025 15.5405C25.8711 15.622 25.915 15.7234 25.9256 15.8341C25.9941 16.5443 26.0182 18.1087 25.0713 19.0357Z" fill="#E01058"/>
<path d="M23.5479 16.1024C23.5392 16.1259 23.5321 16.1505 23.5269 16.1757C23.4601 16.4874 23.3364 16.7727 23.1847 17.027C22.8765 17.5438 22.0731 17.2866 22.1188 16.6866C22.2794 14.6059 21.1767 13.3093 19.5401 11.3065C17.4852 8.7905 19.6702 8.1571 20.4724 6.1825C20.5638 5.95691 20.6188 5.74187 20.6446 5.53914C20.7876 5.39207 20.8708 5.17703 20.8679 4.86179C20.8538 3.37 22.7435 4.51082 21.9882 6.36941C21.2329 8.228 19.1763 8.82507 21.111 11.1934C22.6099 13.028 23.6335 14.2339 23.5479 16.1024Z" fill="#E01058"/>
<path d="M25.5922 13.4317C25.1285 13.4317 24.3991 12.9294 24.5904 12.1881C24.8101 11.3366 25.3218 11.101 25.3218 10.4913C25.3218 9.88147 26.7851 10.1229 26.6035 11.8902C26.5274 12.6306 26.3122 13.4317 25.5922 13.4317Z" fill="#E01058"/>
<path d="M18.4671 4.01417C17.9914 4.01417 17.2431 3.49896 17.4393 2.73841C17.6648 1.86484 18.1896 1.62314 18.1896 0.99759C18.1896 0.372044 19.691 0.619719 19.5046 2.43279C19.4265 3.19234 19.2057 4.01417 18.4671 4.01417Z" fill="#FB1466"/>
<path d="M4.27788 5.37181C4.71452 5.52187 5.56378 5.28497 5.62349 4.52507C5.6921 3.65226 5.28658 3.26483 5.48392 2.69067C5.6812 2.11651 4.22515 1.87036 3.82443 3.59319C3.6565 4.31489 3.59995 5.13884 4.27788 5.37181Z" fill="#FC5A95"/>
<path d="M14.4338 12.7274C8.55328 12.7398 7.51611 17.4394 7.51611 20.8418C7.51611 23.4047 9.52078 23.7548 9.52078 23.7548C9.97816 23.8546 10.3422 24.2003 10.4655 24.6519L10.7285 25.6158C10.7845 25.8208 10.9707 25.963 11.1833 25.963H11.6502C11.8805 25.963 12.0771 25.7967 12.1151 25.5696L12.215 24.974C12.2531 24.7469 12.4496 24.5806 12.6799 24.5806H12.9147C13.1432 24.5806 13.3389 24.7445 13.3789 24.9695L13.5704 26.0473C13.6105 26.2723 13.806 26.4362 14.0346 26.4362H14.8329C15.0614 26.4362 15.2571 26.2723 15.2971 26.0473L15.4886 24.9695C15.5286 24.7445 15.7242 24.5806 15.9528 24.5806H16.1876C16.4179 24.5806 16.6144 24.7469 16.6525 24.974L16.7524 25.5696C16.7905 25.7967 16.987 25.963 17.2173 25.963H17.6842C17.8968 25.963 18.083 25.8208 18.139 25.6158L18.402 24.6519C18.5253 24.2003 18.8893 23.8545 19.3467 23.7548C19.8041 23.6551 21.3514 23.4047 21.3514 20.8418C21.3515 17.4394 20.3143 12.7398 14.4338 12.7274Z" fill="#F2EFF2"/>
<path d="M21.3514 20.842C21.3514 22.1235 20.8504 22.8518 20.3494 23.2596C19.8478 23.6674 19.3469 23.7547 19.3469 23.7547C18.8893 23.8543 18.5254 24.2 18.4023 24.6518L18.1393 25.6156C18.083 25.8207 17.8967 25.9631 17.6846 25.9631H17.2176C16.9873 25.9631 16.7904 25.7967 16.7523 25.5694L16.6527 24.974C16.6469 24.9389 16.6369 24.9049 16.6234 24.8733L16.7318 24.476C16.8549 24.0242 17.2187 23.6785 17.6764 23.5789C17.6764 23.5789 18.1773 23.4916 18.6783 23.0838C19.1799 22.676 19.6809 21.9477 19.6809 20.6662C19.6809 17.651 18.8664 13.6168 14.5879 12.7291C20.3324 12.8223 21.3514 17.4694 21.3514 20.842Z" fill="#E1DDE1"/>
<path d="M12.6531 20.2555C13.3775 19.5311 13.4151 18.3941 12.737 17.716C12.0589 17.0379 10.9219 17.0754 10.1974 17.7999C9.47301 18.5243 9.43545 19.6613 10.1136 20.3394C10.7917 21.0175 11.9286 20.9799 12.6531 20.2555Z" fill="#FB1466"/>
<path d="M18.7462 20.3402C19.4244 19.6621 19.3868 18.5251 18.6624 17.8006C17.9379 17.0762 16.8009 17.0387 16.1228 17.7168C15.4447 18.3949 15.4823 19.5319 16.2067 20.2563C16.9312 20.9807 18.0681 21.0183 18.7462 20.3402Z" fill="#FB1466"/>
<path d="M15.3586 21.4885C15.2158 21.2391 15.0315 21.0165 14.8148 20.8302C14.5969 20.6428 14.2695 20.6429 14.0518 20.8304C13.8354 21.0168 13.6513 21.2393 13.5086 21.4887C13.2825 21.884 13.5761 22.3762 14.0315 22.3762H14.8357C15.2913 22.3761 15.585 21.8838 15.3586 21.4885Z" fill="#FB1466"/>
<path d="M11.4256 14.7479C11.9013 14.7479 12.6496 14.2327 12.4533 13.4722C12.2279 12.5986 11.7031 12.3569 11.7031 11.7314C11.7031 11.1058 10.2017 11.3535 10.3881 13.1666C10.4661 13.9261 10.6869 14.7479 11.4256 14.7479Z" fill="#FC5A95"/>
<path d="M25.6513 14.9451C25.3939 14.8738 25.1152 14.912 24.8867 15.0502C24.6563 15.1895 24.4915 15.4208 24.4344 15.685C24.386 15.9094 24.295 16.1347 24.164 16.3545C24.1533 16.3722 24.1253 16.4191 24.0491 16.3948C23.9705 16.3699 23.9748 16.3139 23.9765 16.2928C24.1377 14.2022 23.0538 12.8763 21.5537 11.0413L21.4509 10.9155C20.3134 9.5231 20.7185 8.99775 21.4539 8.04402C21.779 7.62244 22.1474 7.14461 22.395 6.53512C22.8481 5.41961 22.4958 4.51861 22.0565 4.08601C21.7306 3.76521 21.3175 3.65529 20.9783 3.79926C20.7699 3.88773 20.4213 4.1439 20.4283 4.86607C20.43 5.04127 20.3963 5.16537 20.328 5.2348C20.15 5.41592 19.6306 5.42008 19.1723 5.42377C18.6964 5.42758 18.2043 5.43156 17.7849 5.59469C17.1174 5.85426 16.775 6.36355 16.7947 7.06738C16.8092 7.58816 17.0158 8.12365 17.1981 8.59609C17.2946 8.84623 17.3858 9.08254 17.4137 9.2364C17.5652 10.0729 17.4707 10.6417 17.1477 10.8378C16.8061 11.0453 16.2589 10.8682 16.0614 10.7154C15.8564 10.5566 15.8547 10.4431 16.0494 9.9564C16.1101 9.80494 16.1727 9.64832 16.2046 9.48707C16.3568 8.71744 16.1245 7.93715 15.5329 7.23068C15.0678 6.67527 14.5064 6.31088 14.2866 6.17998C13.7481 5.85941 13.244 5.82344 12.9033 6.08148C12.7238 6.21742 12.4504 6.54842 12.6357 7.23771C12.7842 7.79013 12.3768 8.364 11.708 8.54412C11.5661 8.58238 11.2224 8.36154 11.0289 7.94131C10.8799 7.61781 10.6477 6.78724 11.7061 6.06314C12.9381 5.22039 12.9761 4.25342 12.8892 3.75209C12.7211 2.78295 11.8288 1.90281 10.7193 1.61172C9.73683 1.35402 8.91822 0.65119 8.51767 0.255213C8.3307 0.0702917 8.07306 -0.0214662 7.81097 0.00425649C7.54683 0.0299206 7.30959 0.170721 7.15994 0.390682C6.5532 1.28295 7.00461 1.98836 7.57607 2.88144C7.75853 3.16656 7.96531 3.48971 8.17801 3.87074C8.65824 4.73084 8.47015 5.2443 7.37293 6.06847C7.17886 6.21426 7.13972 6.48971 7.28545 6.68377C7.43117 6.87777 7.70662 6.91697 7.90074 6.77119C8.56472 6.2725 9.94625 5.23474 8.94541 3.4423C8.71982 3.03824 8.50543 2.70326 8.31635 2.40771C7.72238 1.47953 7.62846 1.26455 7.88662 0.88492C7.89207 0.87701 7.89857 0.879061 7.89968 0.880174C8.36275 1.33797 9.31578 2.15213 10.4963 2.4618C11.2716 2.66517 11.9138 3.27097 12.0232 3.90221C12.1359 4.55172 11.6431 5.04138 11.2099 5.33775C10.6247 5.73812 10.2371 6.25123 10.089 6.82164C9.96265 7.30803 10.013 7.83619 10.2307 8.30887C10.5911 9.09162 11.3244 9.55773 11.9367 9.39262C13.0811 9.0843 13.761 8.03752 13.4845 7.00943C13.456 6.90314 13.4513 6.83119 13.4534 6.79012C13.5171 6.79316 13.6474 6.82217 13.837 6.93502C14.1323 7.11086 15.5925 8.05193 15.3425 9.31656C15.3265 9.39765 15.2813 9.51039 15.2336 9.6298C15.0674 10.0449 14.7581 10.8177 15.5235 11.4102C15.9568 11.7457 16.8889 12.023 17.6039 11.5891C18.4447 11.0786 18.4349 9.94275 18.2786 9.07973C18.2359 8.84383 18.1301 8.56978 18.0182 8.27963C17.5355 7.02859 17.5538 6.62752 18.1035 6.41377C18.3727 6.30906 18.7828 6.30578 19.1794 6.30256C19.8393 6.29722 20.5217 6.29172 20.9551 5.85068C21.1928 5.60875 21.3113 5.27465 21.3073 4.85758C21.3062 4.74215 21.3204 4.67119 21.3329 4.63129C21.3852 4.65842 21.4734 4.72463 21.5594 4.86525C21.6616 5.03224 21.8681 5.49707 21.5808 6.2043C21.3783 6.70281 21.0629 7.11179 20.758 7.50736C19.9879 8.50615 19.1916 9.53892 20.7705 11.4715L20.8734 11.5975C22.3458 13.3986 23.2345 14.4857 23.1004 16.2253C23.0649 16.6869 23.3394 17.0917 23.7835 17.2326C24.2268 17.373 24.6828 17.201 24.9191 16.8045C25.0991 16.5025 25.2251 16.1882 25.2937 15.8704C25.3022 15.8312 25.3273 15.8109 25.3416 15.8022C25.3576 15.7926 25.3836 15.7828 25.4165 15.792C25.4554 15.8028 25.4841 15.8366 25.4879 15.876C25.5444 16.4629 25.587 17.9153 24.7638 18.7212C23.9565 19.5115 23.6477 20.7288 23.846 22.3394C23.927 22.9977 23.8506 23.4678 23.619 23.7364C23.3179 24.0858 22.7381 24.1006 22.2723 24.1125C21.8452 24.1235 21.3611 24.1358 21.2274 24.572C21.0219 25.2422 21.6114 25.7076 22.0418 26.0475C22.196 26.1693 22.4783 26.3922 22.521 26.4995C21.9871 27.4977 20.8188 28.2562 19.1422 28.6933C17.5801 29.1006 15.6579 29.2203 13.5831 29.0394C9.17756 28.6553 5.42047 27.037 4.84385 25.2751C4.60062 24.5319 4.97439 24.0297 5.40728 23.4482C5.75744 22.9777 6.11961 22.4912 6.13736 21.8604C6.15693 21.1647 5.75123 20.4821 4.86072 19.712C3.96318 18.9359 3.5965 17.6869 3.96893 16.6746C4.18449 16.0891 4.82867 15.6531 5.08953 15.5441C5.41865 15.4066 5.6576 15.1254 5.72861 14.7921C5.89877 13.994 5.18146 13.5522 4.60508 13.1972C4.10469 12.889 3.78061 12.6694 3.83275 12.4336C3.95439 11.8835 4.26775 11.4092 4.5306 11.1164C4.63894 11.9777 5.12152 13.098 5.98771 13.3172C6.47873 13.4415 6.91039 13.3406 7.20353 13.0332C7.47722 12.7462 7.73058 12.1644 7.38324 11.0226C7.22803 10.5123 6.90904 10.0681 6.60049 9.63842C5.93029 8.70496 5.76394 8.36189 6.36242 7.87017C6.54998 7.71613 6.57711 7.43922 6.42301 7.25166C6.2689 7.06404 5.99193 7.03709 5.80455 7.19107C4.51941 8.24687 5.30967 9.34738 5.88658 10.1509C6.15347 10.5226 6.42939 10.9069 6.54236 11.2783C6.74234 11.9356 6.68088 12.3077 6.5675 12.4265C6.48013 12.5181 6.30189 12.4901 6.20334 12.4652C5.71865 12.3425 5.32701 11.1907 5.39217 10.6411C5.4418 10.2224 5.19922 9.99015 4.93683 9.94568C4.51426 9.87402 4.07088 10.2886 3.77305 10.6489C3.54576 10.9238 3.13982 11.4965 2.97459 12.2438C2.78363 13.1075 3.57002 13.5919 4.14418 13.9455C4.50312 14.1665 4.90994 14.4171 4.8691 14.6087C4.85826 14.6594 4.81285 14.7071 4.75068 14.7331C4.42074 14.871 3.48904 15.434 3.14416 16.371C2.6402 17.7406 3.09904 19.3504 4.28598 20.3767C4.95207 20.9527 5.27029 21.4299 5.25892 21.8355C5.24896 22.189 4.99566 22.5292 4.70234 22.9233C4.22182 23.5689 3.62375 24.3724 4.00871 25.5484C4.82779 28.0509 9.50644 29.5661 13.5069 29.9148C14.1592 29.9717 14.7978 30 15.4176 30C16.8627 30 18.2034 29.8463 19.3641 29.5437C21.2856 29.0428 22.6458 28.1324 23.2977 26.9109C23.6701 26.2132 23.0181 25.6984 22.5866 25.3577C22.4898 25.2812 22.2893 25.1229 22.1674 24.9947C22.2112 24.9933 22.2551 24.9921 22.2949 24.9911C22.8662 24.9765 23.7296 24.9544 24.2849 24.3102C24.6908 23.8394 24.8326 23.1596 24.7184 22.232C24.5554 20.9076 24.7775 19.9377 25.3787 19.3492C25.8315 18.906 26.5615 17.8543 26.3629 15.7916C26.3241 15.3927 26.0382 15.0525 25.6513 14.9451Z" fill="black"/>
<path d="M26.3167 9.9609C25.971 9.7284 25.5674 9.68428 25.264 9.84606C25.0248 9.9735 24.882 10.2147 24.882 10.4914C24.882 10.6724 24.806 10.7983 24.6481 11.0434C24.4873 11.2927 24.2874 11.6029 24.1647 12.0784C24.057 12.4954 24.1439 12.9136 24.4091 13.256C24.6942 13.624 25.1695 13.8712 25.5919 13.8712C25.9362 13.8712 26.413 13.7447 26.7283 13.1425C26.8856 12.842 26.9877 12.4471 27.0403 11.9353C27.1693 10.6791 26.5773 10.136 26.3167 9.9609ZM26.166 11.8453C26.0481 12.9923 25.7047 12.9923 25.5919 12.9923C25.4595 12.9923 25.2353 12.8873 25.1039 12.7177C25.0047 12.5897 24.9758 12.4524 25.0156 12.298C25.1029 11.9598 25.2472 11.7361 25.3867 11.5196C25.5406 11.281 25.7124 11.0144 25.7523 10.6502C25.7926 10.6669 25.8421 10.6958 25.8945 10.7447C26.1175 10.953 26.2165 11.3541 26.166 11.8453Z" fill="black"/>
<path d="M18.4668 4.45393C18.817 4.45393 19.3017 4.32532 19.6226 3.71249C19.7834 3.40545 19.8876 3.00168 19.9414 2.47809C20.0733 1.19559 19.4697 0.641822 19.2041 0.463228C18.8528 0.226978 18.4434 0.182095 18.1358 0.345982C17.8941 0.474712 17.7499 0.718462 17.7499 0.998013C17.7499 1.18698 17.6713 1.31717 17.508 1.57053C17.3436 1.82553 17.139 2.14293 17.0136 2.62897C16.9041 3.05325 16.9925 3.47876 17.2624 3.82721C17.5528 4.20209 18.0368 4.45393 18.4668 4.45393ZM17.8646 2.84858C17.9546 2.49989 18.1031 2.2695 18.2467 2.04667C18.4137 1.78774 18.5856 1.52102 18.6218 1.14479C18.6653 1.16079 18.7206 1.19067 18.7798 1.24463C19.015 1.45938 19.1198 1.87616 19.0671 2.38821C18.9452 3.57502 18.5851 3.57502 18.4668 3.57502C18.3282 3.57502 18.094 3.46563 17.9572 3.28897C17.8531 3.15461 17.8228 3.01059 17.8646 2.84858Z" fill="black"/>
<path d="M4.13539 5.78769C4.26565 5.83245 4.40967 5.85413 4.55826 5.85407C4.86406 5.85407 5.18867 5.76226 5.44971 5.59099C5.81082 5.35404 6.0282 4.98788 6.06184 4.55986C6.10016 4.07212 6.01221 3.71511 5.94154 3.42829C5.87211 3.14669 5.84135 3.00384 5.89977 2.83386C5.98953 2.57265 5.93293 2.29861 5.74848 2.10074C5.51457 1.84978 5.11965 1.76054 4.71816 1.86771C4.41582 1.94839 3.68182 2.26849 3.3967 3.49398C3.28057 3.99314 3.24893 4.3982 3.2999 4.73236C3.40209 5.40238 3.81061 5.67607 4.13539 5.78769ZM4.2527 3.69314C4.36379 3.2156 4.58604 2.87048 4.86242 2.74638C4.92652 2.71761 4.98172 2.70624 5.02467 2.70331C4.94522 3.05839 5.02063 3.36454 5.08818 3.63859C5.14947 3.88738 5.21287 4.14466 5.18568 4.49095C5.17326 4.64851 5.1019 4.76798 4.96754 4.85616C4.77096 4.98513 4.52522 4.99228 4.42098 4.95654C4.31516 4.92015 3.99307 4.80947 4.2527 3.69314Z" fill="black"/>
<path d="M7.07666 20.8415C7.07666 22.3381 7.70982 23.1675 8.24103 23.5999C8.78795 24.045 9.32959 24.1654 9.43318 24.1851C9.72885 24.2519 9.96158 24.4745 10.0415 24.7672L10.3045 25.731C10.4123 26.1261 10.7737 26.4021 11.1833 26.4021H11.6501C12.0969 26.4021 12.4746 26.0823 12.5484 25.6419L12.6483 25.0463C12.651 25.0309 12.6642 25.0196 12.6799 25.0196H12.9146C12.9302 25.0196 12.9434 25.0307 12.9462 25.0461L13.1377 26.1238C13.2151 26.5592 13.5922 26.8752 14.0344 26.8752H14.8328C15.275 26.8752 15.6521 26.5592 15.7295 26.1238L15.921 25.0461C15.9238 25.0308 15.937 25.0196 15.9526 25.0196H16.1873C16.203 25.0196 16.2162 25.0308 16.2189 25.0463L16.3188 25.6418C16.3926 26.0823 16.7703 26.4021 17.2171 26.4021H17.6839C18.0935 26.4021 18.4549 26.1261 18.5627 25.731L18.8257 24.7672C18.9056 24.4745 19.1384 24.2519 19.434 24.1851C19.5376 24.1654 20.0793 24.045 20.6262 23.5999C21.1574 23.1676 21.7905 22.3381 21.7905 20.8415C21.7905 20.4007 21.773 19.9655 21.7385 19.5481C21.7185 19.3062 21.5063 19.1269 21.2643 19.1464C21.0224 19.1664 20.8426 19.3787 20.8626 19.6206C20.8952 20.014 20.9117 20.4248 20.9117 20.8415C20.9117 22.9848 19.3349 23.3094 19.2709 23.3216C19.2648 23.3226 19.2588 23.3238 19.2528 23.3252C18.6333 23.4603 18.1448 23.9242 17.9778 24.5359L17.7148 25.4997C17.7111 25.5136 17.6984 25.5232 17.684 25.5232H17.2171C17.2014 25.5232 17.1882 25.512 17.1856 25.4965L17.0857 24.9011C17.0119 24.4605 16.6341 24.1408 16.1874 24.1408H15.9526C15.5103 24.1408 15.1332 24.4568 15.0558 24.8922L14.8643 25.97C14.8615 25.9853 14.8484 25.9964 14.8328 25.9964H14.0345C14.019 25.9964 14.0058 25.9853 14.003 25.97L13.8115 24.8922C13.7341 24.4568 13.3569 24.1408 12.9147 24.1408H12.6799C12.2332 24.1408 11.8554 24.4605 11.7816 24.901L11.6817 25.4966C11.6791 25.512 11.6658 25.5232 11.6502 25.5232H11.1833C11.169 25.5232 11.1562 25.5135 11.1525 25.4997L10.8895 24.5359C10.7225 23.9242 10.234 23.4603 9.61453 23.3252C9.60849 23.3239 9.60568 23.3232 9.59965 23.3222C9.59543 23.3213 9.17385 23.2381 8.76639 22.8938C8.22844 22.4392 7.95568 21.7487 7.95568 20.8415C7.95568 17.2291 9.136 15.3868 10.2721 14.4499C10.593 15.0591 11.0763 15.1873 11.4257 15.1873C11.8557 15.1873 12.3397 14.9355 12.6301 14.5606C12.8999 14.2122 12.9884 13.7866 12.8788 13.3624C12.8737 13.3424 12.8682 13.3232 12.8628 13.3038C13.351 13.2144 13.8772 13.1681 14.4328 13.1669C14.9448 13.168 15.4351 13.2072 15.89 13.2834C16.1301 13.3236 16.3559 13.162 16.3959 12.9226C16.4361 12.6832 16.2745 12.4567 16.0352 12.4166C15.533 12.3324 14.9945 12.2892 14.4328 12.288C13.7443 12.2895 13.0943 12.3541 12.4958 12.48C12.4576 12.4177 12.42 12.3592 12.3843 12.3038C12.221 12.0504 12.1424 11.9203 12.1424 11.7314C12.1424 11.4518 11.9982 11.2081 11.7565 11.0794C11.4489 10.9155 11.0395 10.9604 10.6882 11.1966C10.4226 11.3752 9.81908 11.929 9.95086 13.2115C9.96316 13.3314 9.97851 13.4443 9.99621 13.552C8.08506 14.9314 7.07666 17.445 7.07666 20.8415ZM11.1124 11.978C11.1716 11.924 11.2269 11.8942 11.2704 11.8782C11.3066 12.2544 11.4786 12.5211 11.6454 12.78C11.7891 13.0028 11.9377 13.2332 12.0277 13.5819C12.0694 13.7438 12.0391 13.8879 11.935 14.0223C11.7981 14.1989 11.5639 14.3083 11.4254 14.3083C11.3071 14.3083 10.9471 14.3083 10.825 13.1215C10.7725 12.6095 10.8772 12.1928 11.1124 11.978Z" fill="black"/>
<path d="M20.5695 17.8054C20.6198 18.0046 20.7988 18.1373 20.9952 18.1373C21.0308 18.1373 21.0671 18.1329 21.1032 18.1238C21.3385 18.0643 21.481 17.8254 21.4215 17.5901C20.8682 15.4008 19.7128 13.8648 17.9873 13.0249C17.7692 12.9187 17.5061 13.0095 17.3999 13.2277C17.2937 13.4459 17.3844 13.7089 17.6027 13.8151C19.0844 14.5364 20.0826 15.8789 20.5695 17.8054Z" fill="black"/>
<path d="M13.0511 17.4058C12.2026 16.5575 10.7845 16.595 9.88972 17.4897C8.99511 18.3844 8.95743 19.8026 9.80587 20.6511C10.2153 21.0605 10.7574 21.2635 11.3093 21.2635C11.9011 21.2635 12.5042 21.03 12.9672 20.5671C13.8619 19.6725 13.8995 18.2543 13.0511 17.4058ZM12.3457 19.9457C11.7935 20.4978 10.933 20.5353 10.4273 20.0296C9.92154 19.5238 9.95915 18.6632 10.5112 18.1112C10.8031 17.8194 11.1811 17.6713 11.5475 17.6713C11.874 17.6713 12.1913 17.789 12.4296 18.0273C12.9354 18.5331 12.8977 19.3937 12.3457 19.9457Z" fill="black"/>
<path d="M15.8161 17.4058C15.8161 17.4058 15.8161 17.4058 15.8161 17.4058C14.9677 18.2542 15.0053 19.6724 15.9 20.5671C16.363 21.03 16.966 21.2634 17.5578 21.2634C18.1098 21.2634 18.6519 21.0603 19.0614 20.651C19.9097 19.8025 19.8721 18.3843 18.9774 17.4896C18.0827 16.595 16.6645 16.5575 15.8161 17.4058ZM18.356 18.1112C18.908 18.6632 18.9456 19.5238 18.4399 20.0296C17.934 20.5354 17.0734 20.4976 16.5215 19.9457C15.9694 19.3937 15.9319 18.5331 16.4376 18.0273H16.4375C16.9434 17.5215 17.804 17.5591 18.356 18.1112Z" fill="black"/>
<path d="M14.0316 22.8154H14.8358C15.2108 22.8154 15.5472 22.6213 15.7357 22.2961C15.9222 21.9746 15.9238 21.591 15.7399 21.27C15.5724 20.9773 15.3576 20.7172 15.1013 20.4968C14.7204 20.1692 14.1459 20.1694 13.7651 20.4973C13.5093 20.7176 13.2947 20.9776 13.1273 21.2703C12.9436 21.5913 12.9453 21.9749 13.1318 22.2963C13.3203 22.6213 13.6567 22.8154 14.0316 22.8154ZM13.8901 21.7067C14.0079 21.501 14.1587 21.3182 14.3386 21.1632C14.3652 21.1403 14.3993 21.1289 14.4334 21.1289C14.4676 21.1289 14.5017 21.1403 14.5283 21.1632C14.7084 21.3181 14.8595 21.501 14.9772 21.7067C15.0119 21.7672 14.9954 21.8209 14.9754 21.8554C14.9613 21.8798 14.9193 21.9366 14.8358 21.9366H14.0316C13.9481 21.9366 13.9061 21.8798 13.892 21.8555C13.8721 21.8209 13.8555 21.7672 13.8901 21.7067Z" fill="black"/>
</g>
<defs>
<clipPath id="clip0_322_837">
<rect width="30" height="30" fill="white"/>
</clipPath>
</defs>
</svg>
