<svg width="30" height="30" viewBox="0 0 30 30" fill="none" xmlns="http://www.w3.org/2000/svg">
<g clip-path="url(#clip0_322_876)">
<path d="M24.5001 9.39888C28.0976 9.64198 26.8337 5.70407 25.3752 3.77277C24.7158 2.8996 24.6527 1.97822 24.7814 1.23062C24.9239 0.403101 23.7254 0.110894 23.467 0.90982C23.2234 1.66263 23.2403 2.77697 22.993 4.3263C22.5069 7.37253 19.7844 6.67638 16.7216 6.57917C13.6588 6.48197 14.9714 9.64198 14.1936 11.6348C13.4158 13.6276 12.2976 13.8229 11.5684 12.8744C10.8391 11.9258 12.0292 10.1666 12.7585 9.43737C13.4877 8.70812 10.5272 8.42657 8.92285 9.73919C7.48426 10.9162 11.1666 14.1734 8.82945 14.8613C5.32121 15.894 3.2041 18.6089 3.2041 22.0966C3.2041 26.2078 6.40484 29.5599 10.6352 29.5599C17.6859 29.5599 18.8485 23.919 19.2926 21.3544C19.7732 18.5794 22.4857 21.6273 24.7432 19.6414C26.6776 17.9398 24.2571 17.3403 25.196 12.5103C25.4194 11.3609 24.5002 10.2739 24.0211 11.3921C23.542 12.5103 23.1875 14.1146 21.9077 13.567C20.6278 13.0194 20.9025 9.15577 24.5001 9.39888Z" fill="#00B7FF"/>
<path d="M24.4998 9.39895C21.8866 9.2224 21.0267 11.2127 21.2426 12.5248C20.9774 12.7448 20.6437 12.8146 20.1985 12.6239C18.9186 12.0767 19.1931 8.21289 22.7912 8.45576C26.3887 8.69922 25.1245 4.76096 23.6657 2.82995C23.4868 2.59299 23.3519 2.35247 23.2528 2.11258C23.2522 2.11258 23.2528 2.112 23.2528 2.112C23.3038 1.63745 23.3607 1.23919 23.4669 0.910124C23.7256 0.110613 24.9239 0.403347 24.7814 1.2304C24.6523 1.97829 24.7157 2.89979 25.375 3.7726C26.8332 5.70414 28.0973 9.64182 24.4998 9.39895Z" fill="#1785F8"/>
<path d="M24.7433 19.6411C22.4856 21.6273 19.7733 18.5794 19.2923 21.3545C18.8482 23.919 17.6856 29.5601 10.635 29.5601C8.93922 29.5601 7.40939 29.0217 6.18408 28.1113C7.02525 28.438 7.94793 28.6169 8.92574 28.6169C15.977 28.6169 17.1395 22.9764 17.5836 20.4113C18.064 17.6363 20.7763 20.6841 23.034 18.6985C24.7462 17.1922 23.0463 16.5499 23.2845 13.0727C23.5819 12.6016 23.7866 11.9388 24.0207 11.3922C24.4999 10.2741 25.4191 11.361 25.1956 12.5102C24.257 17.3401 26.6772 17.9401 24.7433 19.6411Z" fill="#1785F8"/>
<path d="M10.5883 27.4536C10.6363 27.4805 10.6908 27.4947 10.7458 27.4943C13.0467 27.4766 14.6884 26.7308 15.7629 25.2157C16.4599 24.2329 16.8259 23.0517 17.0357 22.1263C17.0609 22.0152 17.0242 21.8995 16.9399 21.8228L15.9997 20.9673C15.9184 20.8934 15.8814 20.7825 15.9018 20.6746L16.1342 19.448C16.1663 19.2787 16.0569 19.1149 15.8884 19.0797L15.856 19.0729C15.643 19.0283 15.5376 18.7868 15.6499 18.6003L16.2126 17.6661C16.301 17.5193 16.2563 17.3287 16.1118 17.2364L14.6315 16.2919C14.5414 16.2344 14.4281 16.2263 14.3308 16.2705L11.7588 17.4381L11.8698 16.8415C11.89 16.7328 11.8519 16.6213 11.7693 16.5477L11.1655 16.0093C11.0379 15.8955 10.8413 15.9023 10.7254 16.0282C10.4424 16.3357 10.027 16.6291 9.41838 16.8082C6.80474 17.5776 5.29736 19.4751 5.27492 22.0193C5.27456 22.0574 5.2813 22.0954 5.29431 22.1312L6.09675 24.3432C6.12505 24.4211 6.18277 24.4848 6.25753 24.5206L7.86423 25.2891C7.94925 25.3298 8.01172 25.4062 8.03457 25.4976L8.15386 25.9748C8.17496 26.0592 8.23004 26.1313 8.30597 26.1739L10.5883 27.4536Z" fill="#FB946D"/>
<path d="M17.0359 22.1264C16.8259 23.0514 16.4599 24.2328 15.7631 25.2159C14.6884 26.731 13.0467 27.4765 10.7461 27.4941L11.7486 25.8664L13.1417 24.4152C13.3212 24.2281 13.3564 23.9453 13.2285 23.7201L12.7845 22.9352C12.669 22.7305 12.686 22.4766 12.8291 22.29L15.6499 18.6005C15.5379 18.787 15.6429 19.0281 15.8558 19.0727L15.8887 19.0797C16.057 19.1149 16.1661 19.2786 16.1345 19.4481L15.9022 20.6746C15.8817 20.7826 15.9186 20.8934 15.9996 20.9673L16.9399 21.8225C17.0242 21.8994 17.0612 22.015 17.0359 22.1264Z" fill="#FC7D4B"/>
<path d="M17.0358 22.1265C16.8258 23.0515 16.4597 24.2329 15.7629 25.216C14.6883 26.7311 13.0465 27.4766 10.7459 27.4942C10.6908 27.4948 10.6362 27.4807 10.5881 27.4537L9.57861 26.8877C11.8428 26.8431 13.4653 26.087 14.534 24.5795C15.0168 23.8991 15.6708 22.3048 16.1048 21.063L16.9396 21.8226C17.0241 21.8995 17.061 22.015 17.0358 22.1265Z" fill="#FB6A3B"/>
<path d="M13.4506 27.0273C12.6763 27.3323 11.7771 27.4865 10.7459 27.4942C10.6908 27.4948 10.6362 27.4807 10.5881 27.4537L8.30576 26.1738C8.23012 26.1316 8.17498 26.0594 8.15383 25.9749L8.03418 25.4974C8.01133 25.4065 7.9491 25.3297 7.86408 25.2892L6.25744 24.5208C6.18238 24.485 6.1249 24.4211 6.09671 24.3431L5.29427 22.1311C5.28138 22.0953 5.27435 22.0578 5.27494 22.0197H7.34142C7.50859 22.0197 7.66873 22.0912 7.77959 22.2168L8.25648 22.7535C8.33037 22.8368 8.42658 22.8978 8.53392 22.9283L10.6069 23.5195C10.8186 23.58 10.9788 23.7542 11.021 23.97L11.1225 24.4832C11.1459 24.6023 11.2064 24.712 11.2949 24.7953L11.6516 25.1326C11.7777 25.2521 11.8408 25.4165 11.8349 25.5808C11.8289 25.7458 11.9404 25.8914 12.1042 25.9126L12.6686 25.9859C12.8687 26.012 13.0414 26.1389 13.1258 26.3222L13.4506 27.0273Z" fill="#FB5532"/>
<path d="M13.4505 27.0271C13.1007 27.1654 12.7251 27.2726 12.3238 27.3482L12.1263 26.938C12.0472 26.7734 11.8849 26.6591 11.6968 26.6357L11.166 26.57C11.0119 26.5507 10.907 26.42 10.9128 26.2718C10.9181 26.1241 10.8589 25.9759 10.7406 25.8687L10.4054 25.5652C10.3222 25.4908 10.2654 25.3917 10.2431 25.2851L10.1476 24.8234C10.1078 24.6294 9.95776 24.473 9.75854 24.4185L7.80971 23.887C7.70892 23.8595 7.61869 23.8044 7.54896 23.73L7.10072 23.2472C6.99642 23.1341 6.84584 23.0702 6.68881 23.0702H5.63529L5.29427 22.131C5.28138 22.0952 5.27435 22.0577 5.27494 22.0197H7.34154C7.50853 22.0197 7.66908 22.0911 7.77982 22.2165L8.25678 22.7532C8.3306 22.837 8.4267 22.898 8.53393 22.9284L10.607 23.5197C10.8185 23.58 10.979 23.754 11.0212 23.9702L11.1226 24.4835C11.146 24.6025 11.2064 24.712 11.2949 24.7952L11.6517 25.1327C11.7777 25.2523 11.841 25.4163 11.8351 25.581C11.8292 25.7456 11.9406 25.8915 12.104 25.9126L12.6689 25.9859C12.8687 26.0122 13.0415 26.1388 13.1259 26.3222L13.4505 27.0271Z" fill="#EC462E"/>
<path d="M13.4506 27.0273C12.6763 27.3324 11.7771 27.4866 10.7459 27.4943C10.6908 27.4948 10.6362 27.4808 10.5881 27.4538L9.57861 26.8877C10.9014 26.862 12.0053 26.5927 12.9074 26.0724C13.0013 26.1322 13.0775 26.2185 13.1256 26.3223L13.4506 27.0273Z" fill="#EC462E"/>
<path d="M6.42177 13.903C8.27444 13.1482 6.35392 11.3451 7.09431 9.75268C7.23106 9.4586 7.08101 9.10967 6.77526 9.00145C6.10806 8.76532 5.08724 8.72975 4.76374 10.4997C4.26927 13.2049 3.56907 13.3476 2.22698 14.2147C1.28292 14.8247 1.19298 16.5565 1.61456 17.891C1.73146 18.2611 2.25435 18.2706 2.38905 17.9066C2.81186 16.7644 3.86415 14.945 6.42177 13.903Z" fill="#00B7FF"/>
<path d="M6.42166 13.9027C3.86422 14.945 2.81188 16.7646 2.38895 17.9066C2.25459 18.2703 1.73141 18.2609 1.61469 17.8908C1.47096 17.4362 1.38711 16.9358 1.37598 16.449C1.97838 15.4225 3.0442 14.24 4.91949 13.4762C6.77246 12.7213 4.85205 10.9182 5.59233 9.32565C5.6416 9.22007 5.65332 9.10745 5.63457 9.00186C6.01526 8.81477 6.43994 8.8828 6.77545 9.00128C7.08108 9.10979 7.23119 9.45825 7.09455 9.75268C6.35416 11.3452 8.27463 13.1484 6.42166 13.9027Z" fill="#1785F8"/>
<path d="M18.4087 27.6722C19.1739 26.898 20.6059 25.1259 20.93 22.4527C20.9626 22.1843 21.2025 21.9896 21.4713 22.0185C22.5582 22.1352 25.1304 22.2237 26.0381 20.6124C26.5919 19.6294 27.4159 19.3252 28.1274 19.2762C28.5713 19.2457 28.7999 19.7939 28.4614 20.0827C28.0533 20.4308 27.6727 20.9547 27.6089 21.7178C27.4629 23.4631 28.3361 24.9176 25.9509 24.8302C23.5656 24.743 22.6348 24.8884 22.4603 26.4301C22.3066 27.7878 20.2804 29.0778 18.5871 28.4723C18.2526 28.3527 18.1589 27.9249 18.4087 27.6722Z" fill="#1785F8"/>
<path d="M28.4617 20.0829C28.0534 20.4307 27.6727 20.9546 27.6088 21.7177C27.4627 23.4633 28.3362 24.9174 25.9511 24.8301C23.5655 24.7432 22.6346 24.8881 22.4604 26.4303C22.3067 27.7876 20.2806 29.078 18.5872 28.4721C18.2523 28.3531 18.159 27.9249 18.4089 27.672C18.4447 27.6356 18.4822 27.597 18.5215 27.5559C19.8671 27.4409 21.1177 26.4262 21.2368 25.3715C21.411 23.8294 22.3419 23.684 24.7275 23.7713C27.1125 23.8587 26.2397 22.404 26.3852 20.6589C26.3854 20.6562 26.3856 20.6536 26.3859 20.6509C26.4277 20.1628 26.7274 19.7282 27.1699 19.5182C27.4894 19.3667 27.8188 19.2976 28.1273 19.2764C28.5714 19.2459 28.8001 19.7937 28.4617 20.0829Z" fill="#0043C0"/>
<path d="M19.6484 15.0478L18.0159 16.0862C17.8097 16.2174 17.7065 16.4626 17.7567 16.7018L17.9363 17.5569C17.9826 17.7768 18.1504 17.9511 18.3685 18.0055L18.9244 18.144C19.1671 18.2045 19.4214 18.1045 19.5579 17.8948L20.7209 16.108C20.8769 15.8682 20.8372 15.5507 20.6269 15.3567L20.3609 15.1115C20.1653 14.9312 19.8729 14.9051 19.6484 15.0478Z" fill="#FB946D"/>
<path d="M20.7209 16.1082L19.5583 17.8949C19.4217 18.1043 19.1671 18.2046 18.9248 18.1442L18.3688 18.0052C18.1881 17.9606 18.0426 17.8339 17.9717 17.6667L17.9904 17.6714C18.2333 17.7318 18.4872 17.6321 18.6239 17.4227L19.7871 15.6354C19.9185 15.4336 19.9109 15.1773 19.7801 14.9855C19.979 14.9204 20.2019 14.9644 20.3614 15.1116L20.6271 15.3568C20.8376 15.5509 20.8769 15.8682 20.7209 16.1082Z" fill="#FC7D4B"/>
<path d="M18.7654 9.48974L17.3369 10.3984C17.1565 10.5132 17.0662 10.7278 17.1101 10.937L17.2673 11.6853C17.3077 11.8778 17.4546 12.0302 17.6455 12.0778L18.1319 12.199C18.3442 12.252 18.5668 12.1644 18.6862 11.981L19.7038 10.4175C19.8404 10.2076 19.8057 9.92984 19.6216 9.76009L19.3888 9.54552C19.2177 9.38767 18.9618 9.36482 18.7654 9.48974Z" fill="#FB946D"/>
<path d="M19.7038 10.4173L18.686 11.9811C18.5664 12.1641 18.3441 12.2521 18.1317 12.1988L17.6455 12.0779C17.5058 12.0433 17.3903 11.953 17.3223 11.8316C17.5153 11.8568 17.7082 11.7694 17.8167 11.6028L18.8345 10.0396C18.9518 9.85893 18.9424 9.62895 18.821 9.45943C19.0081 9.37025 19.2334 9.40254 19.3888 9.54568L19.6211 9.75979C19.8053 9.92989 19.8404 10.2073 19.7038 10.4173Z" fill="#FC7D4B"/>
<path d="M16.1774 27.2073C14.8233 28.4771 12.9586 29.121 10.6351 29.121C6.71431 29.121 3.64307 26.0356 3.64307 22.0969C3.64307 18.8089 5.62816 16.2616 8.95324 15.2828C9.43933 15.1398 9.77185 14.8831 9.94166 14.5199C10.2711 13.8153 9.88587 12.9287 9.51334 12.0712C8.84449 10.5318 8.96191 10.2745 9.20086 10.079C10.1923 9.26785 11.6843 9.18887 12.2752 9.30781C11.9231 9.69681 11.5008 10.2702 11.2167 10.8904C10.6835 12.0546 10.924 12.7574 11.2198 13.1421C11.6308 13.6766 12.1585 13.9279 12.7055 13.8501C13.2344 13.7746 13.9931 13.3568 14.6029 11.7944C14.8794 11.086 14.915 10.2883 14.9494 9.51681C15.0264 7.79398 15.1329 6.96805 16.7077 7.01803C17.1513 7.03209 17.5912 7.05916 18.0166 7.08529C18.1951 7.09625 18.3714 7.10709 18.5449 7.11676C18.7868 7.13035 18.9946 6.9449 19.0082 6.7025C19.0217 6.46016 18.8363 6.25273 18.594 6.23914C18.422 6.22953 18.2474 6.21881 18.0705 6.20791C17.6386 6.18142 17.1921 6.154 16.7357 6.13947C14.2226 6.06055 14.1394 7.95488 14.0714 9.47756C14.0402 10.1776 14.0078 10.9016 13.7841 11.4747C13.439 12.359 12.9893 12.9217 12.5814 12.9799C12.2994 13.0199 12.0646 12.7989 11.9166 12.6063C11.4391 11.9853 12.295 10.5219 13.069 9.74773C13.4096 9.40719 13.3499 9.02029 13.1396 8.78791C12.6888 8.28969 11.5145 8.37599 11.1654 8.41431C10.5968 8.47672 9.51328 8.68765 8.64427 9.39863C7.72183 10.1534 8.26822 11.4109 8.7072 12.4213C8.98839 13.0684 9.30703 13.8019 9.14543 14.1475C9.12363 14.1941 9.05736 14.3358 8.70509 14.4395C6.8939 14.9727 5.38928 15.9577 4.35392 17.2883C3.31389 18.625 2.76416 20.2876 2.76416 22.0967C2.76416 26.5283 6.22148 29.9998 10.6351 29.9998C13.1893 29.9998 15.2563 29.2759 16.7787 27.8483C16.9557 27.6822 16.9646 27.4041 16.7986 27.2271C16.6326 27.0502 16.3545 27.0411 16.1774 27.2073Z" fill="black"/>
<path d="M18.0542 26.2928C19.1971 24.4821 19.5541 22.4204 19.7257 21.4297C19.8953 20.45 20.2437 20.4632 21.4261 20.66C22.4286 20.8269 23.8018 21.0553 25.0337 19.9716C26.2241 18.9246 26.0161 18.1092 25.7528 17.0769C25.5141 16.1412 25.1872 14.8597 25.6276 12.594C25.8042 11.6857 25.3984 10.7164 24.7591 10.5198C24.3995 10.4091 23.9105 10.5346 23.6173 11.2189C23.5419 11.395 23.4694 11.5828 23.3993 11.7643C23.1648 12.3712 22.8991 13.0591 22.5464 13.2077C22.5015 13.2267 22.3646 13.2844 22.0807 13.1629C21.761 13.0261 21.5326 12.342 21.716 11.579C22.0015 10.391 23.0318 9.74005 24.4708 9.8372C25.3278 9.89509 26.4613 9.75599 26.9974 8.7647C27.8179 7.24747 26.6531 4.73491 25.7263 3.50755C25.245 2.87029 25.0729 2.12913 25.2148 1.30472C25.3167 0.712278 24.9665 0.177728 24.3818 0.0335873C23.8787 -0.0903385 23.2594 0.124114 23.0492 0.774095C22.8952 1.24999 22.8397 1.81384 22.7693 2.52775C22.7195 3.03364 22.663 3.60704 22.5593 4.25673C22.3217 5.7456 21.5394 6.12657 20.4379 6.24054C20.1965 6.2655 20.021 6.48147 20.046 6.72288C20.0709 6.96429 20.2872 7.13989 20.5283 7.11476C21.6042 7.00349 23.0753 6.60042 23.4273 4.39519C23.5351 3.71943 23.593 3.13202 23.644 2.61382C23.7091 1.95265 23.7605 1.43034 23.8854 1.04462C23.9449 0.860755 24.0901 0.867024 24.1713 0.886946C24.2514 0.906692 24.3808 0.967806 24.3485 1.1556C24.1664 2.2138 24.4003 3.21025 25.0248 4.0373C26.0141 5.34716 26.7539 7.36724 26.2243 8.34663C25.9722 8.81274 25.4022 9.01923 24.5301 8.96034C22.2883 8.80893 21.1658 10.1077 20.8615 11.3736C20.7366 11.8934 20.742 12.434 20.8768 12.896C21.029 13.4176 21.3338 13.7994 21.7351 13.9711C22.151 14.149 22.5389 14.1648 22.8879 14.0177C23.5847 13.724 23.9073 12.8888 24.2193 12.081C24.2896 11.8988 24.3562 11.7266 24.4254 11.5651C24.467 11.468 24.506 11.4105 24.532 11.3804C24.6533 11.4832 24.867 11.9013 24.765 12.4264C24.2869 14.8858 24.6566 16.3351 24.9013 17.2942C25.1543 18.2861 25.2395 18.6202 24.4534 19.3117C23.5346 20.1199 22.5361 19.9538 21.5705 19.793C20.5079 19.6162 19.1859 19.3963 18.8598 21.2798C18.6978 22.2148 18.3609 24.1605 17.3111 25.8238C17.1815 26.029 17.2429 26.3004 17.4481 26.43C17.5209 26.4759 17.602 26.4979 17.6823 26.4979C17.828 26.4977 17.9706 26.4253 18.0542 26.2928Z" fill="black"/>
<path d="M10.5139 26.9088C10.3023 26.7902 10.0345 26.8655 9.91569 27.0772C9.79703 27.2889 9.87239 27.5568 10.0841 27.6755L10.3733 27.8377C10.4864 27.9011 10.6142 27.9344 10.7431 27.9344H10.7489C13.2016 27.9155 14.9589 27.1096 16.1213 25.4705C16.7218 24.624 17.161 23.562 17.4643 22.2237C17.5243 21.959 17.4367 21.6809 17.2357 21.4981L16.3464 20.6889L16.566 19.53C16.6334 19.1739 16.434 18.8232 16.1091 18.6898L16.589 17.8931C16.802 17.5394 16.6963 17.0883 16.3481 16.8661L14.8678 15.9216C14.6514 15.7835 14.3827 15.7644 14.1489 15.8705L12.3098 16.7053C12.2901 16.5207 12.2028 16.3458 12.0615 16.2197L11.4577 15.6814C11.1517 15.4086 10.6781 15.4306 10.4018 15.7306C10.1253 16.031 9.7525 16.2518 9.29395 16.3867C6.48449 17.2137 4.85922 19.2655 4.83496 22.0157C4.83496 22.0171 4.83514 22.0185 4.83514 22.0198V22.0199V22.0204C4.83484 22.1094 4.85008 22.1973 4.88066 22.2815L5.68311 24.4935C5.75107 24.6809 5.8876 24.8316 6.06748 24.9176L7.62192 25.661L7.72715 26.082C7.77742 26.2829 7.9099 26.4563 8.09067 26.5577L8.41879 26.7417C8.63043 26.8603 8.89832 26.785 9.01703 26.5733C9.13575 26.3616 9.06033 26.0937 8.84864 25.975L8.56692 25.8171L8.46057 25.3917C8.40578 25.1724 8.25742 24.9906 8.05346 24.8931L6.49217 24.1464L5.88016 22.4594H7.34113C7.38303 22.4594 7.4227 22.4771 7.45076 22.5089L7.92754 23.0455C8.05387 23.1878 8.21612 23.2912 8.3967 23.3459C8.40028 23.347 8.40385 23.3483 8.40742 23.3493C8.40936 23.3499 8.41117 23.3506 8.41311 23.3511L10.4862 23.9425C10.5385 23.9574 10.5791 24.0015 10.5897 24.0556L10.6912 24.5687C10.7322 24.7767 10.8397 24.971 10.9929 25.1151L11.3492 25.452C11.3802 25.4814 11.3972 25.5227 11.3956 25.5654C11.3814 25.9619 11.6616 26.2988 12.0476 26.3489L12.6119 26.4222C12.6624 26.4288 12.7054 26.4603 12.7267 26.5066L12.8474 26.7687C12.2344 26.9516 11.5452 27.0467 10.775 27.0551L10.5139 26.9088ZM10.7273 23.0974L9.40217 22.7194L10.342 21.8425C10.5194 21.6769 10.529 21.3989 10.3635 21.2214C10.1979 21.044 9.91979 21.0342 9.74231 21.1999L8.49637 22.3625L8.10871 21.9262C7.91471 21.7065 7.63492 21.5806 7.34113 21.5806H5.7342C5.81664 20.6002 6.1467 19.7412 6.71846 19.022C7.38004 18.1897 8.33002 17.5868 9.54209 17.2301C10.1105 17.0627 10.5873 16.7894 10.9614 16.4166L11.4247 16.8297L11.0192 18.4539L8.64332 20.2488C8.44967 20.3951 8.41129 20.6708 8.5576 20.8644C8.64403 20.9788 8.77551 21.039 8.90858 21.039C9.0008 21.039 9.09385 21.0101 9.17313 20.9502L11.6676 19.0658C11.7445 19.0076 11.8001 18.9259 11.826 18.8331L12.1267 17.7539L14.4513 16.6987L15.774 17.5427L15.2853 18.354L12.4801 22.0231C12.2296 22.3495 12.1987 22.7926 12.4016 23.1523L12.846 23.9377C12.8778 23.9936 12.8688 24.0652 12.8243 24.1115L12.0488 24.9194C12.0193 24.8826 11.9881 24.8469 11.9534 24.814L11.5958 24.4759C11.5743 24.4556 11.5592 24.4283 11.5534 24.3987L11.4521 23.8863C11.3778 23.5059 11.1 23.2037 10.7273 23.0974ZM13.5249 26.1389C13.3764 25.8164 13.0773 25.5965 12.7251 25.5507L12.6682 25.5433L13.4586 24.72C13.7702 24.3951 13.8326 23.895 13.6108 23.5042L13.1669 22.7197C13.1377 22.6679 13.1418 22.6045 13.178 22.5574L15.5683 19.4309C15.6044 19.45 15.6417 19.4671 15.6808 19.4802L15.2178 21.9391C15.1731 22.1776 15.3303 22.4073 15.5689 22.452C15.5962 22.4571 15.6235 22.4595 15.6503 22.4595C15.8576 22.4595 16.0423 22.3121 16.0818 22.1009L16.1561 21.7041L16.591 22.0998C16.3179 23.2739 15.9189 24.2366 15.4043 24.962C14.945 25.6098 14.3691 26.1044 13.6681 26.4498L13.5249 26.1389Z" fill="black"/>
<path d="M6.58734 14.3099C7.2109 14.0559 7.57506 13.6478 7.66974 13.0969C7.74674 12.6492 7.63969 12.1892 7.52642 11.7022C7.38639 11.1002 7.24154 10.4776 7.49256 9.93768C7.60928 9.68666 7.61443 9.3958 7.50679 9.13951C7.3984 8.88147 7.18512 8.68002 6.92168 8.5868C6.33111 8.3778 5.78672 8.4017 5.34744 8.65617C4.83257 8.95436 4.49062 9.54791 4.33113 10.4204C3.92519 12.641 3.45005 12.9355 2.40896 13.5806C2.27519 13.6635 2.13685 13.7493 1.98808 13.8454C1.437 14.2014 1.08579 14.8512 0.972356 15.7244C0.879133 16.4423 0.960285 17.2802 1.19501 18.0233C1.3054 18.3728 1.61425 18.6043 1.98181 18.6133C1.98919 18.6135 1.99646 18.6136 2.00384 18.6136C2.36408 18.6136 2.67533 18.3979 2.80078 18.0591C3.2397 16.8738 4.25285 15.261 6.58734 14.3099ZM2.00712 17.673C1.6712 16.5271 1.74702 15.0476 2.46503 14.5838C2.60689 14.4921 2.74165 14.4086 2.87197 14.3278C4.08615 13.5754 4.74087 13.0668 5.19574 10.5785C5.30525 9.9794 5.50998 9.57774 5.78789 9.41678C5.89453 9.35502 6.01892 9.32408 6.15996 9.32408C6.29994 9.32408 6.45644 9.35455 6.62842 9.41537C6.67025 9.43014 6.689 9.46219 6.69644 9.47994C6.705 9.50033 6.71185 9.53203 6.69556 9.56707C6.31681 10.3817 6.51281 11.2243 6.67031 11.9013C6.89537 12.8689 6.93849 13.2176 6.2557 13.4958C3.553 14.5971 2.4399 16.5512 2.00712 17.673Z" fill="black"/>
<path d="M28.9965 19.3966C28.8469 19.0299 28.4941 18.8109 28.0979 18.8379C27.0336 18.9111 26.1891 19.4502 25.6558 20.3969C24.8745 21.7836 22.5023 21.6875 21.5186 21.5818C21.0151 21.5277 20.5554 21.8948 20.4941 22.4001C20.1889 24.917 18.8608 26.5904 18.0963 27.3638C17.8719 27.5908 17.7802 27.912 17.8511 28.2231C17.9215 28.5321 18.1414 28.7802 18.4394 28.8867C18.7728 29.0059 19.1289 29.0644 19.4919 29.0644C20.1591 29.0644 20.8494 28.8666 21.4627 28.4843C22.2763 27.9773 22.8127 27.228 22.8973 26.48C23.0163 25.4287 23.3864 25.1764 25.9353 25.2698C26.7853 25.3008 27.3437 25.1495 27.6904 24.7933C28.1512 24.3202 28.1079 23.6362 28.062 22.912C28.0384 22.5392 28.0141 22.1538 28.0474 21.7546C28.0916 21.2255 28.3271 20.7755 28.7471 20.4172C29.0472 20.1613 29.1451 19.7607 28.9965 19.3966ZM28.1768 19.7484C27.5825 20.2553 27.2349 20.9237 27.1715 21.6814C27.1328 22.1448 27.1605 22.5819 27.1848 22.9675C27.2195 23.5142 27.2493 23.9864 27.0607 24.1802C26.9062 24.3389 26.5281 24.4119 25.9675 24.3914C23.6637 24.3073 22.2484 24.3989 22.024 26.3811C21.97 26.8574 21.5768 27.3775 20.9978 27.7384C20.2766 28.1879 19.4308 28.3079 18.7353 28.059C18.7288 28.0567 18.7135 28.0512 18.7081 28.0279C18.702 28.0012 18.7166 27.9865 18.7214 27.9817C19.5648 27.1284 21.0299 25.2824 21.3667 22.5059C21.3702 22.477 21.3934 22.4554 21.4196 22.4554C21.4213 22.4554 21.4231 22.4555 21.4248 22.4557C22.5817 22.58 25.384 22.67 26.4216 20.8283C26.8083 20.1421 27.3925 19.7674 28.1583 19.7148C28.1724 19.7137 28.1744 19.7161 28.1768 19.7188C28.1833 19.7261 28.1857 19.7368 28.1854 19.7394C28.1853 19.7395 28.1835 19.7427 28.1768 19.7484Z" fill="black"/>
<path d="M18.2625 18.432L18.8184 18.5706C18.9008 18.5912 18.984 18.6011 19.0663 18.6011C19.4078 18.6011 19.7343 18.43 19.9266 18.1347L21.0895 16.3477C21.3635 15.9267 21.2944 15.3741 20.9251 15.0337L20.6591 14.7884C20.3174 14.4734 19.8049 14.4276 19.4129 14.677C19.4129 14.677 19.4129 14.677 19.4129 14.677L17.7804 15.7154C17.4217 15.9435 17.2395 16.3762 17.3268 16.7921L17.5065 17.6472C17.5867 18.0296 17.8835 18.3376 18.2625 18.432ZM18.2521 16.4571L19.8846 15.4186C19.9408 15.3829 20.0144 15.3894 20.0633 15.4346L20.3293 15.6799C20.3822 15.7287 20.3921 15.8079 20.3528 15.8683L19.1899 17.6552C19.1556 17.7078 19.0918 17.7331 19.031 17.7177L18.475 17.5792C18.4207 17.5656 18.3782 17.5215 18.3666 17.4667L18.1869 16.6115C18.1745 16.5518 18.2006 16.4898 18.2521 16.4571Z" fill="black"/>
<path d="M18.5299 9.11872L17.1013 10.0274C16.7683 10.2392 16.5991 10.641 16.6803 11.0272L16.8375 11.7754C16.912 12.1304 17.1876 12.4164 17.5395 12.5041L18.0259 12.6253C18.1024 12.6444 18.1796 12.6536 18.2561 12.6536C18.5732 12.6536 18.8764 12.4947 19.0548 12.2205L20.0725 10.6569C20.3269 10.266 20.2627 9.75288 19.9198 9.43671L19.687 9.22202C19.3697 8.9297 18.894 8.8871 18.5299 9.11872ZM19.0912 9.86837L19.324 10.083C19.3505 10.1075 19.3556 10.1472 19.3358 10.1775L18.3181 11.7412C18.3009 11.7675 18.2689 11.7802 18.2385 11.7725L17.752 11.6513C17.7247 11.6445 17.7035 11.6224 17.6977 11.5948L17.5404 10.8464C17.5342 10.8165 17.5472 10.7855 17.5731 10.7691L19.0016 9.8604C19.03 9.84241 19.0668 9.84575 19.0912 9.86837Z" fill="black"/>
</g>
<defs>
<clipPath id="clip0_322_876">
<rect width="30" height="30" fill="white"/>
</clipPath>
</defs>
</svg>
