<svg width="184" height="59" viewBox="0 0 184 59" fill="none" xmlns="http://www.w3.org/2000/svg">
<path d="M24.564 11.1605L21.157 6.39321L26.8358 4.9358L30.3274 0.226322L33.4723 5.17254L39.0407 7.01953L35.2943 11.538L35.2518 17.4027L29.7956 15.2432L24.2026 17.0165L24.564 11.1605Z" fill="#0043C0"/>
<path d="M32.3643 6.57748L36.1694 7.8436L33.6163 10.9291L33.5846 14.9278L29.8602 13.4532L26.0433 14.6635L26.2904 10.6676L23.9569 7.41942L27.8397 6.42233L30.217 3.20398L32.3643 6.57748Z" fill="#FDF028"/>
<path d="M29.9297 20.5801L2.2705 24.8035L4.38731 34.7006L29.9297 20.5801Z" fill="#0043C0"/>
<path d="M27.9678 29.8152L0.000456397 51.65L9.89967 54.1546L27.9678 29.8152Z" fill="#0043C0"/>
<path d="M158.748 11.1605L162.156 6.39321L156.477 4.9358L152.985 0.226322L149.84 5.17254L144.272 7.01953L148.018 11.538L148.061 17.4027L153.517 15.2432L159.11 17.0165L158.748 11.1605Z" fill="#0043C0"/>
<path d="M150.948 6.57748L147.143 7.8436L149.696 10.9291L149.728 14.9278L153.452 13.4532L157.269 14.6635L157.022 10.6676L159.356 7.41942L155.473 6.42233L153.096 3.20398L150.948 6.57748Z" fill="#FDF028"/>
<path d="M153.383 20.5801L181.042 24.8035L178.925 34.7006L153.383 20.5801Z" fill="#0043C0"/>
<path d="M155.345 29.8152L183.312 51.65L173.413 54.1546L155.345 29.8152Z" fill="#0043C0"/>
</svg>
